<?xml version="1.0" encoding="utf-8"?>
<!-- Generator: Adobe Illustrator 21.1.0, SVG Export Plug-In . SVG Version: 6.00 Build 0)  -->
<svg version="1.1" id="Layer_1" xmlns="http://www.w3.org/2000/svg" xmlns:xlink="http://www.w3.org/1999/xlink" x="0px" y="0px"
	 viewBox="0 0 46.9935989 47.0020103" style="enable-background:new 0 0 46.9935989 47.0020103;" xml:space="preserve">
<style type="text/css">
	.st0{fill:#5FC9DC;}
	.st1{fill:#FFFFFF;}
</style>
<title>scroll-prompt</title>
<path class="st0" d="M21.6436005,47.0020103h-0.0799999c-0.8624592-0.0690918-1.7204208-0.1859398-2.5699501-0.3499985
	c-0.5670891-0.1238403-0.9264107-0.6839409-0.8025703-1.25103c0.1197491-0.5483398,0.64921-0.9058418,1.20257-0.8119698
	c0.7736092,0.1488304,1.5547791,0.2553215,2.3400002,0.3190002c0.5763493,0.0688896,0.9877205,0.5919685,0.9188309,1.1683197
	C22.5908794,46.5916595,22.1623192,46.9848785,21.6436005,47.0020103z M26.5835991,46.862011
	c-0.5799007,0.0015717-1.0512695-0.4672508-1.0528393-1.0471497c-0.0014305-0.5279617,0.3894005-0.9748802,0.9128399-1.0438499
	c0.7775402-0.109169,1.5486507-0.2600594,2.3099995-0.4519997c0.5625-0.143589,1.1348991,0.1959991,1.2784996,0.7584991
	s-0.1959991,1.1349106-0.7584991,1.2784996l0,0l0,0c-0.8402004,0.2132301-1.6914902,0.3801498-2.5499992,0.5
	c-0.0464802,0.0051689-0.0932693,0.0068588-0.1399994,0.0050697L26.5835991,46.862011z M14.4736004,45.1980095
	c-0.1445503-0.0002899-0.2874899-0.0302391-0.4200001-0.0880013c-0.7906504-0.3478508-1.5618095-0.73843-2.3100605-1.1699982
	c-0.4944096-0.3041115-0.6486797-0.9514389-0.3445702-1.4458504c0.2920704-0.4748306,0.9040499-0.639019,1.3945704-0.3741493
	c0.6809101,0.391449,1.3818703,0.7469292,2.0999994,1.0649986c0.5335197,0.2286491,0.7806597,0.8465195,0.552,1.3800392
	c-0.1664696,0.3884087-0.5493698,0.6393509-0.97194,0.6369705C14.4735994,45.2020187,14.4735994,45.1980095,14.4736004,45.1980095z
	 M33.6335983,44.6510086c-0.5804405-0.0033302-1.0482903-0.4765701-1.04496-1.0570107
	c0.0022507-0.3934898,0.2241287-0.7527695,0.5749512-0.9309883c0.7008095-0.3572998,1.3818016-0.7522087,2.0400009-1.1829987
	c0.4864502-0.3160515,1.137001-0.1779213,1.4530487,0.3085289c0.3146591,0.4842987,0.1792793,1.1317902-0.303051,1.4494705l0,0
	c-0.721981,0.4745293-1.4698105,0.9085388-2.2400017,1.2999992c-0.1490707,0.0743599-0.3135109,0.1127205-0.4800987,0.1119995
	L33.6335983,44.6510086z M8.2835999,41.1510086c-0.2630596,0.0001297-0.51653-0.0987587-0.71-0.2770004
	c-0.6347899-0.5864906-1.2389202-1.2053108-1.8099999-1.8540001c-0.37744-0.4386292-0.3329101-1.0990105,0.0999999-1.4830017
	c0.4348302-0.3811684,1.0963302-0.3376999,1.47754,0.0971107l0.00246,0.0028915
	c0.5195098,0.5923195,1.0702996,1.1564484,1.6500001,1.6899986c0.4274702,0.3934898,0.45502,1.0590096,0.0615301,1.4864807
	c-0.1986103,0.2157593-0.4782696,0.338829-0.7715302,0.3395195V41.1510086z M39.5835991,40.2600098
	c-0.5804482-0.0023003-1.0491295-0.4747086-1.0468292-1.0551605c0.0010796-0.2718697,0.1074715-0.5327492,0.2968292-0.7278404
	c0.5505219-0.5633392,1.0680504-1.1579895,1.5499992-1.7809982c0.3664093-0.450901,1.0289612-0.5193901,1.4798698-0.1529884
	c0.437561,0.3555717,0.5170097,0.9928818,0.18013,1.4449883c-0.5307198,0.6817589-1.0982285,1.3340607-1.7000008,1.9539986
	c-0.1996384,0.20504-0.4738197,0.3204803-0.7599907,0.3199997L39.5835991,40.2600098z M3.7335999,35.3230095
	c-0.38416-0.00037-0.7372701-0.2110901-0.9200001-0.5489998c-0.4141901-0.7585983-0.78479-1.5402107-1.11-2.3409996
	c-0.21926-0.5357208,0.03728-1.1477509,0.5730001-1.3670006c0.5357199-0.2192593,1.1477399,0.0372791,1.3670001,0.573
	c0.3,0.7240009,0.6399999,1.441,1.0099998,2.1309986c0.2783298,0.5093994,0.0910101,1.1479797-0.4183998,1.4263115
	c-0.1538501,0.0840607-0.3262901,0.1282997-0.5016,0.1287003V35.3230095z M43.8035507,34.1810112
	c-0.1555099-0.0000496-0.3091087-0.0341911-0.4500008-0.0999985c-0.524559-0.2484283-0.7484093-0.875061-0.4999809-1.3996201
	c0.0000114-0.0000191,0.0000191-0.0000381,0.0000305-0.000061l0.0001183-0.00037
	c0.3300018-0.7089996,0.6300011-1.4449997,0.8899994-2.1870003c0.1808014-0.5492496,0.7726212-0.8479404,1.3218689-0.667141
	c0.5492516,0.1807995,0.8479385,0.7726192,0.667141,1.3218708c-0.0001183,0.0003605-0.0002403,0.0007305-0.0003586,0.0010891
	l-0.0086708,0.0252094c-0.2778587,0.8176403-0.6017113,1.6189213-0.9700012,2.3999996
	c-0.1724892,0.3693199-0.5424614,0.6060905-0.9500694,0.6080017L43.8035507,34.1810112z M1.32355,28.3310108
	c-0.51418,0.0004692-0.95365-0.3701305-1.04-0.8770008c-0.14355-0.8521309-0.23704-1.7119408-0.28-2.5750008
	c-0.04758-0.5762806,0.38102-1.0820293,0.9572999-1.1296005c0.57628-0.0475807,1.0820301,0.3810196,1.1296098,0.9573002
	c0.0014601,0.0180702,0.00244,0.03619,0.0030501,0.0543194c0.0462699,0.7859497,0.13305,1.5689907,0.26,2.3460007
	c0.0974,0.5705509-0.28614,1.1120396-0.8566899,1.2094707L1.4936,28.3170109c-0.05609,0.0102901-0.11297,0.0156498-0.17,0.0160007
	L1.32355,28.3310108z M45.813549,27.0590096c-0.0400009-0.0000591-0.0800018-0.0020008-0.1199989-0.0060005
	c-0.5747795-0.0670109-0.98909-0.5833607-0.9299507-1.1590004c0.0884094-0.7828693,0.1318092-1.5701599,0.1300011-2.3579998
	v-0.0909996c-0.0027618-0.5799007,0.4650993-1.0522404,1.0449982-1.0550003s1.0522385,0.4650993,1.0550003,1.0450001l0,0v0.0870991
	c-0.0012207,0.8685207-0.0479507,1.7363701-0.1399994,2.6000004c-0.0552788,0.5330296-0.5041084,0.9382801-1.0400009,0.9389992
	L45.813549,27.0590096z M1.31355,20.9330101c-0.0603,0.0003109-0.12052-0.0043697-0.18005-0.0139999
	c-0.568-0.0921803-0.95376-0.6273098-0.8617-1.1953201l0.0018-0.0106201c0.13635-0.8543491,0.32336-1.6998405,0.56006-2.5319996
	c0.15015-0.55439,0.7212499-0.8821297,1.2756602-0.7320595l0.0144,0.0039997c0.5602899,0.1577492,0.88696,0.7394791,0.73,1.2999992
	c-0.21029,0.7571697-0.3805299,1.5249004-0.51,2.2999992c-0.08044,0.5069504-0.51686,0.8806-1.0301501,0.882L1.31355,20.9330101z
	 M45.3834991,19.5830097c-0.4892197-0.0002899-0.912899-0.3396492-1.0200005-0.8169994
	c-0.1761017-0.7673702-0.3930817-1.5247803-0.6500015-2.269001c-0.1902618-0.5467596,0.0987396-1.1442404,0.6455002-1.3345003
	s1.1442413,0.0987396,1.3344994,0.6455002c0.2799988,0.8119993,0.5200005,1.651,0.7200012,2.4910002
	c0.1225319,0.5643806-0.2284088,1.12323-0.7900009,1.2579994c-0.0786705,0.0182209-0.1591187,0.0276108-0.2398682,0.0279999
	L45.3834991,19.5830097z M3.69367,13.9300098c-0.58269-0.0009499-1.0542901-0.4740801-1.05334-1.0567703
	C2.64061,12.7012396,2.68294,12.5319099,2.7636201,12.3800097c0.4128301-0.7608299,0.8668401-1.4986,1.3599999-2.21
	c0.3313699-0.4749699,0.9850302-0.5913696,1.46-0.2600002s0.5913701,0.9850302,0.2600002,1.46
	c-0.4454198,0.6487103-0.8559999,1.3206596-1.23,2.0129995c-0.18256,0.3380804-0.53578,0.5488596-0.9200001,0.5489998
	L3.69367,13.9300098z M42.5736694,12.7400103c-0.3633194-0.0009699-0.7001686-0.1902199-0.8899994-0.5
	c-0.4144211-0.6687803-0.8651009-1.3144102-1.3499985-1.934c-0.3581505-0.4562902-0.2785912-1.1165304,0.1777115-1.4746799
	c0.4551086-0.3572197,1.1134109-0.2791204,1.47229,0.1746798c0.5329819,0.6788397,1.0270996,1.38731,1.4799995,2.1219997
	c0.3086891,0.4895897,0.1620598,1.1367197-0.3275108,1.4454298l-0.0024414,0.0015898
	c-0.1679611,0.1057596-0.3616714,0.1635103-0.5601196,0.1669798L42.5736694,12.7400103z M8.2236996,8.0820103
	c-0.2927299,0.0013905-0.5724101-0.1210098-0.77-0.3369999c-0.39607-0.4239502-0.3736901-1.0886497,0.0500002-1.4850001
	c0.63765-0.5851998,1.3052096-1.13694,2.0000005-1.6529999c0.4572897-0.3575201,1.1178303-0.27665,1.4753599,0.1806402
	s0.2766504,1.1178298-0.1806402,1.4753599l0,0c-0.0145302,0.0114102-0.0295401,0.02246-0.0446796,0.0330801
	C10.1209002,6.7655501,9.5134001,7.26823,8.9337902,7.8020101C8.7411299,7.9822702,8.4874401,8.0830097,8.2236004,8.0840101
	L8.2236996,8.0820103z M37.703701,7.1820102c-0.2439194,0.0002999-0.4805107-0.0833898-0.6699982-0.237
	c-0.6074219-0.4989901-1.2416992-0.9643602-1.9000015-1.3940001c-0.4882812-0.31215-0.6310616-0.96103-0.3189011-1.4493098
	c0.312149-0.4882801,0.9610291-0.6310601,1.4492989-0.3189101c0.0032082,0.0020499,0.0064087,0.0041201,0.0096016,0.0062101
	c0.7246895,0.4702098,1.422451,0.9806798,2.0900002,1.529c0.4495583,0.3663001,0.5170593,1.0276899,0.1507607,1.4772501
	C38.3157692,7.0391102,38.0182304,7.1810398,37.703701,7.1820102z M14.3936005,4.0180101
	c-0.5798998-0.0004301-1.0496502-0.47088-1.0492201-1.0507801c0.0003099-0.4169099,0.2472496-0.7941501,0.62922-0.96122
	c0.7886-0.35109,1.5965805-0.65692,2.4200001-0.916c0.5427895-0.20412,1.1482697,0.07043,1.3523903,0.61322
	c0.2041092,0.5427901-0.0704308,1.14827-0.6132202,1.3523902c-0.0357399,0.0134399-0.0721798,0.02492-0.1091709,0.03439
	c-0.7488194,0.23528-1.4833899,0.5137501-2.1999998,0.8340001C14.6881599,3.9843099,14.5418396,4.0162902,14.3936005,4.0180101z
	 M31.2835999,3.50001c-0.1229992-0.0000501-0.2449799-0.0224099-0.3600006-0.066c-0.7366199-0.2743599-1.487751-0.50804-2.25-0.7
	c-0.5633297-0.1380701-0.9080696-0.70667-0.7700005-1.27s0.7066708-0.90807,1.2700005-0.77
	c0.8404293,0.20842,1.6684208,0.46416,2.4799995,0.766c0.5474205,0.193,0.8347397,0.7932301,0.6417389,1.3406601
	c-0.1507187,0.4275-0.5585308,0.7102001-1.0117397,0.70134L31.2835999,3.50001z M21.5536003,2.18501
	c-0.5800991,0.02004-1.0666199-0.43398-1.0866604-1.0140899c-0.0198002-0.57331,0.4237595-1.05659,0.9966602-1.08591
	c0.6700497-0.056,1.3400497-0.08433,2.0100002-0.085l0,0c0.2000008,0,0.3899994,0,0.5799999,0.007
	c0.5793896,0.03502,1.0206909,0.5331,0.9856796,1.1125c-0.0332203,0.5496501-0.4850597,0.9804801-1.0356808,0.9875001
	c-0.1800499,0-0.3500004-0.006-0.5300007-0.006c-0.6100006-0.0000601-1.2199993,0.02561-1.8299999,0.0769999
	c-0.0296707,0.00529-0.0597992,0.0076399-0.0899391,0.007H21.5536003z"/>
<g>
	<path class="st1" d="M30.0907898,30.4640331c-0.8043423,0-1.5519581-0.4318867-1.9511318-1.1270161l-1.3801975-2.3903103
		h-6.5252342l-1.3797798,2.3911667c-0.4015236,0.6947136-1.1500854,1.1259613-1.95368,1.1259613
		c-0.3929558,0-0.7812958-0.1040707-1.1230621-0.3008118c-1.0761986-0.6219711-1.4459753-2.0028267-0.8247519-3.0781479
		l6.5930338-11.4209585c0.4013252-0.6944923,1.148613-1.1259613,1.9503841-1.1259613
		c0.8034859,0,1.5511913,0.4316883,1.9512196,1.1264009l6.5931435,11.4205189
		c0.621006,1.0753212,0.2512283,2.4559574-0.8244209,3.0777302C30.8750744,30.3597641,30.4858761,30.4640331,30.0907898,30.4640331z
		 M19.6633148,25.9580574h7.6668606l1.6662903,2.8856907c0.223896,0.3900547,0.6430168,0.6316357,1.0943241,0.6316357
		c0.2216339,0,0.4397297-0.0583515,0.6307793-0.1688385c0.6038456-0.3488617,0.8115273-1.1238079,0.4629955-1.7273464
		l-6.5934525-11.4209576c-0.2244225-0.3898354-0.6437626-0.6316366-1.0947418-0.6316366
		c-0.4498119,0-0.8690434,0.2420206-1.0942135,0.631856l-6.5930347,11.4207382
		c-0.3486414,0.6035385-0.1410694,1.3784847,0.4626865,1.7273464c0.1912727,0.1102676,0.4089279,0.1686401,0.6289577,0.1686401
		c0.4517231,0,0.8723602-0.2420197,1.097641-0.6316357L19.6633148,25.9580574z M25.8706875,23.4306545h-4.7472496
		l2.3728237-4.1127357L25.8706875,23.4306545z M22.8351192,22.4420052h1.3232288l-0.6618671-1.146349L22.8351192,22.4420052z"/>
	<g>
		<path class="st1" d="M35.6194229,35.2583847l0.8562813-0.4943237l0.4593468,0.7946968l-0.8562584,0.4947433L35.6194229,35.2583847
			z M34.5910988,33.4776115l0.8562546-0.4943275l0.4591522,0.7951393l-0.8562813,0.4943237L34.5910988,33.4776115z
			 M33.5625305,31.6972733l0.8562775-0.4947414l0.4593506,0.7951145l-0.8562584,0.4947624L33.5625305,31.6972733z
			 M32.5342026,29.9165192l0.8562584-0.4943237l0.4593697,0.7951145l-0.8562813,0.4943237L32.5342026,29.9165192z"/>
		<path class="st1" d="M32.5730247,37.0168419l0.8562775-0.4943237l0.4591293,0.7951355l-0.8562546,0.4943237L32.5730247,37.0168419
			z M31.5448952,35.2360649l0.8562775-0.4943237l0.4591293,0.7951355l-0.8562584,0.4943237L31.5448952,35.2360649z
			 M30.5169849,33.4553108l0.8562794-0.4943237l0.4591312,0.7951126l-0.8562603,0.4943275L30.5169849,33.4553108z
			 M29.4888573,31.6745338l0.8562794-0.4943237l0.4591274,0.7951145l-0.8562565,0.4943256L29.4888573,31.6745338z"/>
		
			<rect x="21.9186363" y="10.9367304" transform="matrix(0.8660412 -0.4999725 0.4999725 0.8660412 -2.6952033 12.7324562)" class="st1" width="0.9887126" height="0.9182696"/>
		
			<rect x="19.8618412" y="7.3756723" transform="matrix(0.8660471 -0.4999624 0.4999624 0.8660471 -1.19031 11.2268209)" class="st1" width="0.9887131" height="0.9181595"/>
		
			<rect x="20.8901901" y="9.1560106" transform="matrix(0.8660468 -0.4999629 0.4999629 0.8660468 -1.9426653 11.9794531)" class="st1" width="0.9887126" height="0.9181788"/>
		
			<rect x="19.9002457" y="14.4755735" transform="matrix(0.8660468 -0.4999629 0.4999629 0.8660468 -4.7348518 12.1970911)" class="st1" width="0.9887221" height="0.9181653"/>
		
			<rect x="18.8721275" y="12.6952114" transform="matrix(0.8660412 -0.4999725 0.4999725 0.8660412 -3.9823844 11.4448175)" class="st1" width="0.9887131" height="0.9177986"/>
		
			<rect x="16.8158684" y="9.1341267" transform="matrix(0.8660412 -0.4999725 0.4999725 0.8660412 -2.477484 9.9397306)" class="st1" width="0.9887126" height="0.9181598"/>
		
			<rect x="17.843998" y="10.914465" transform="matrix(0.866041 -0.499973 0.499973 0.866041 -3.2298825 10.6922722)" class="st1" width="0.9887121" height="0.9181785"/>
		
			<rect x="26.1789474" y="7.3403959" transform="matrix(0.5000739 -0.8659828 0.8659828 0.5000739 6.5322862 26.984869)" class="st1" width="0.9181598" height="0.9887126"/>
		<polygon class="st1" points="23.2543507,13.8415298 22.7835121,13.0262241 23.497427,12.6142864 24.2111416,13.0262241 
			23.7405243,13.8415298 		"/>
		
			<rect x="24.1226902" y="10.9015083" transform="matrix(0.5000739 -0.8659828 0.8659828 0.5000739 2.4204469 26.9844799)" class="st1" width="0.9181598" height="0.9887126"/>
		
			<rect x="25.1508102" y="9.1207438" transform="matrix(0.5000635 -0.8659887 0.8659887 0.5000635 4.4767551 26.9848232)" class="st1" width="0.9181788" height="0.9887126"/>
		
			<rect x="27.1673489" y="12.6597548" transform="matrix(0.5002528 -0.8658794 0.8658794 0.5002528 2.416265 30.4947281)" class="st1" width="0.9177983" height="0.9887126"/>
		
			<rect x="28.1952324" y="10.8791981" transform="matrix(0.4998661 -0.8661027 0.8661027 0.4998661 4.4803047 30.5058384)" class="st1" width="0.9180689" height="0.9887126"/>
		
			<rect x="26.13904" y="14.4403" transform="matrix(0.5000559 -0.8659931 0.8659931 0.5000559 0.3642628 30.5002823)" class="st1" width="0.9181601" height="0.9887132"/>
		
			<rect x="29.2232056" y="9.0988503" transform="matrix(0.5000559 -0.8659931 0.8659931 0.5000559 6.5318322 30.5007229)" class="st1" width="0.9181598" height="0.9887126"/>
		<path class="st1" d="M38.9583778,26.9471226v-0.9886475h0.9182777v0.9886475H38.9583778z M36.9021187,26.9471226v-0.9886475
			h0.9182777v0.9886475H36.9021187z M34.8458595,26.9471226v-0.9886475h0.9182816v0.9886475H34.8458595z M32.7896271,26.9471226
			v-0.9886475h0.9182777v0.9886475H32.7896271z"/>
		<path class="st1" d="M36.9267921,23.4315109v-0.9886494h0.9182777v0.9886494H36.9267921z M34.8707542,23.4315109v-0.9886494
			h0.9182777v0.9886494H34.8707542z M32.8147163,23.4315109v-0.9886494h0.9182777v0.9886494H32.8147163z M30.7586765,23.4315109
			v-0.9886494h0.9182796v0.9886494H30.7586765z"/>
		<path class="st1" d="M13.2856951,26.9471226v-0.9886475h0.9182787v0.9886475H13.2856951z M11.2294369,26.9471226v-0.9886475
			h0.9182787v0.9886475H11.2294369z M9.1729822,26.9467068l0.0001974-0.9886494l0.9182787,0.0004177l-0.0002193,0.9886475
			L9.1729822,26.9467068z M7.1169438,26.9467068v-0.9886494h0.9182572v0.9886494H7.1169438z"/>
		<path class="st1" d="M15.3168402,23.4315109v-0.9886494h0.9180593v0.9886494H15.3168402z M13.2605829,23.4315109v-0.9886494
			h0.9182796v0.9886494H13.2605829z M11.204545,23.4310703l0.0002193-0.9886475l0.9180593,0.0004387l-0.0002193,0.9886494
			L11.204545,23.4310703z M9.1485071,23.4310703v-0.9886475h0.9182787v0.9886475H9.1485071z"/>
		<path class="st1" d="M10.0602388,35.5591774l0.4591503-0.7951164l0.8562584,0.4943237l-0.4591284,0.7951164L10.0602388,35.5591774
			z M11.0883675,33.7784233l0.4591522-0.7951393l0.8562565,0.4943275l-0.4591284,0.7951355L11.0883675,33.7784233z
			 M12.116497,31.9976463l0.4591284-0.7951145l0.8562794,0.4943237l-0.4591284,0.7951145L12.116497,31.9976463z
			 M13.1446257,30.2168713l0.4591284-0.7951164l0.8562794,0.4943256l-0.4591503,0.7951145L13.1446257,30.2168713z"/>
		<path class="st1" d="M13.1051455,37.3167763l0.4591284-0.7951164l0.8562794,0.4943237L13.9614248,37.8111L13.1051455,37.3167763z
			 M14.1330547,35.5360222l0.4591503-0.7951393l0.8562574,0.4943237l-0.4591274,0.7951393L14.1330547,35.5360222z
			 M15.1611834,33.7556839l0.4591293-0.7951355l0.8562784,0.4943237l-0.4591274,0.7951355L15.1611834,33.7556839z
			 M16.189312,31.9749069l0.4591293-0.7946968l0.8561687,0.4943237l-0.4590397,0.7946968L16.189312,31.9749069z"/>
	</g>
</g>
</svg>
