<?xml version="1.0" encoding="utf-8"?>
<!-- Generator: Adobe Illustrator 21.0.1, SVG Export Plug-In . SVG Version: 6.00 Build 0)  -->
<svg version="1.1" id="Layer_1" xmlns="http://www.w3.org/2000/svg" xmlns:xlink="http://www.w3.org/1999/xlink" x="0px" y="0px"
	 viewBox="0 0 17.9990005 18" style="enable-background:new 0 0 17.9990005 18;" xml:space="preserve">
<style type="text/css">
	.st0{fill:#FFFFFF;}
</style>
<g>
	<g>
		<path class="st0" d="M16.6669998,0H1.32715C0.594727,0,0,0.581055,0,1.29785v15.4033508C0,17.4179993,0.594727,18,1.32715,18
			h15.3398495c0.7343998,0,1.3320007-0.5820007,1.3320007-1.2987995V1.29785C17.9990005,0.581055,17.4013996,0,16.6669998,0z
			 M5.33887,15.3379002H2.6660199V6.7480502H5.33887V15.3379002z M4.0039101,5.5747099
			c-0.85743,0-1.5498102-0.69385-1.5498102-1.5483398S3.1464801,2.47803,4.0039101,2.47803
			c0.8535099,0,1.5468698,0.69385,1.5468698,1.5483401S4.85742,5.5747099,4.0039101,5.5747099z M15.3379002,15.3379002h-2.6690006
			v-4.1777c0-0.9961004-0.0174999-2.2773905-1.3875999-2.2773905c-1.3887196,0-1.6006393,1.0859404-1.6006393,2.20609v4.2490005
			H7.01367V6.7480502h2.5586004v1.1743097h0.0371094C9.9658203,7.2470698,10.8359003,6.5351601,12.1348,6.5351601
			c2.7040997,0,3.2031002,1.7783203,3.2031002,4.0918398V15.3379002z"/>
	</g>
</g>
</svg>
