<?xml version="1.0" encoding="utf-8"?>
<!-- Generator: Adobe Illustrator 21.0.1, SVG Export Plug-In . SVG Version: 6.00 Build 0)  -->
<svg version="1.1" id="Layer_1" xmlns="http://www.w3.org/2000/svg" xmlns:xlink="http://www.w3.org/1999/xlink" x="0px" y="0px"
	 viewBox="0 0 345.0690308 323.4356689" style="enable-background:new 0 0 345.0690308 323.4356689;" xml:space="preserve">
<style type="text/css">
	.st0{fill:#FFFFFF;}
</style>
<path class="st0" d="M176.0146027,0c13.5605774,0.0019249,60.2624817,3.640022,82.271225,52.9822769
	c7.2449036,16.2435913,5.3916626,45.6765671,3.9005127,69.3238754c-0.2366028,3.7490997-0.4656677,7.3835144-0.6521912,10.859436
	l-0.0813599,1.4908447l0.9995117,1.1106873c0.3992615,0.4489746,4.1685486,4.3846436,12.5445251,4.7097931l0.1403503,0.0038452
	l0.1368408-0.0038452c5.5375061-0.2086945,11.7793884-1.9253998,18.5587769-5.1032867
	c0.9940796-0.4675903,2.3226013-0.6947327,3.7268066-0.6947327c1.6039429,0,3.303833,0.3009338,4.7080383,0.8921967
	l0.2106018,0.0851746c3.5514832,1.2434998,6.0644836,3.5938263,6.1069946,5.7150879
	c0.0202026,1.206604-0.8814697,5.5285339-13.475708,10.5026855c-1.2305298,0.4878082-2.8529053,1.0014343-4.7301941,1.5944672
	c-8.1948547,2.6053772-20.5765686,6.5299683-24.7449951,16.3451385c-2.3485413,5.5395966-1.7093201,12.0660248,1.9067993,19.4033356
	c1.4892578,3.471756,24.8779602,56.1734772,77.5278931,64.8486023c-0.0147705,0.2438202-0.0739746,0.5210114-0.2162476,0.8424683
	c-0.8942871,2.1028137-6.5670166,9.3589783-41.8552856,14.8059998c-5.5246582,0.8519287-6.8789978,7.0382996-8.4497375,14.2368774
	c-0.559845,2.5740967-1.1417847,5.170166-1.9343872,7.8603821c-0.2385254,0.8129578-0.2845764,0.861084-1.1588135,0.861084
	c-0.1199951,0-0.2548828,0-0.4119263,0l0,0c-1.565094,0-3.9449768-0.3252869-6.6997986-0.8645935
	c-5.0019531-0.9775391-11.8609009-2.1767578-20.6173706-2.1767578c-4.887207,0-9.9260101,0.4249268-14.9759979,1.262085
	c-10.7981873,1.7978821-19.5843201,8.0118408-28.8895416,14.5841675
	c-12.4888763,8.8323364-25.3991394,17.958374-45.1000519,17.958374c-0.8553009,0-1.697937-0.0275879-2.5403748-0.0683289
	l-0.2218781-0.0112305l-0.2236176,0.0205078c-0.4839478,0.0404358-0.9700012,0.0590515-1.4688721,0.0590515
	c-19.697052,0-32.6127777-9.1260376-45.0998917-17.9545288c-9.3015289-6.5761719-18.0894241-12.7901306-28.8859787-14.5880127
	c-5.0516281-0.8371582-10.088501-1.262085-14.9758682-1.262085c-8.7546921,0-15.6135025,1.3341064-20.619091,2.3134155
	c-2.7532768,0.5413818-5.1366463,1.0032043-6.6980515,1.0032043c-1.2767296,0-1.3027153-0.0737915-1.572525-0.9958191
	c-0.7908211-2.6921692-1.3709984-5.35849-1.9327774-7.9287415c-1.5723381-7.1988831-2.9322929-13.4219666-8.4497528-14.2737427
	c-35.2919502-5.4491272-40.9608345-12.7237244-41.857048-14.8209229C0.0718636,254.6032867,0.0128328,254.3187103,0,254.0711975
	c52.6460571-8.6733704,76.0347824-61.3693085,77.5240326-64.8506775c3.6161194-7.3408508,4.2590408-13.8636017,1.9087143-19.3995056
	c-4.1648788-9.8186951-16.5483665-13.7471313-24.7449951-16.3525085c-1.8772774-0.5912628-3.4996605-1.1066589-4.7303276-1.5944672
	c-10.6411133-4.2017822-13.9097862-8.4351654-13.4202156-11.0015564c0.5636826-2.9584503,5.6910248-5.9664459,10.1645355-5.9664459
	c1.0070534,0,1.8864212,0.1607208,2.5388107,0.4675903c7.2691345,3.4016571,13.90802,5.1327972,19.7228775,5.1327972
	c9.1518707,0,13.22612-4.2588806,13.6585846-4.7412415l0.9922943-1.1087494l-0.0813217-1.4853973
	c-0.1865616-3.4701385-0.4140244-7.1027908-0.6522064-10.8501282c-1.4892654-23.6473083-3.3408813-53.0599136,3.9040298-69.3071899
	C108.708519,3.8525653,155.181366,0.0646452,168.9026642,0.0646452c0.3383026,0,6.3007507-0.0591913,6.3007507-0.0591913
	C175.4603882,0.0019249,175.7282715,0,176.0146027,0"/>
</svg>
