<?xml version="1.0" encoding="utf-8"?>
<!-- Generator: Adobe Illustrator 17.1.0, SVG Export Plug-In . SVG Version: 6.00 Build 0)  -->
<!DOCTYPE svg PUBLIC "-//W3C//DTD SVG 1.1//EN" "http://www.w3.org/Graphics/SVG/1.1/DTD/svg11.dtd">
<svg version="1.1" id="Layer_1" xmlns="http://www.w3.org/2000/svg" xmlns:xlink="http://www.w3.org/1999/xlink" x="0px" y="0px"
	 viewBox="0 0 249.6 202.8" enable-background="new 0 0 249.6 202.8" xml:space="preserve">
<path fill="#FFFFFF" d="M249.6,24c-9.2,4.1-19.1,6.8-29.4,8.1c10.6-6.3,18.7-16.4,22.5-28.3c-9.9,5.9-20.8,10.1-32.5,12.4
	C200.8,6.2,187.5,0,172.8,0c-28.3,0-51.2,22.9-51.2,51.2c0,4,0.5,7.9,1.3,11.7C80.4,60.7,42.6,40.4,17.4,9.4
	c-4.4,7.6-6.9,16.4-6.9,25.8c0,17.8,9,33.4,22.8,42.6c-8.4-0.3-16.3-2.6-23.2-6.4V72c0,24.8,17.7,45.5,41.1,50.2
	c-4.3,1.2-8.8,1.8-13.5,1.8c-3.3,0-6.5-0.3-9.6-0.9c6.5,20.3,25.4,35.1,47.8,35.6c-17.5,13.7-39.6,21.9-63.6,21.9
	c-4.1,0-8.2-0.3-12.2-0.7c22.7,14.5,49.6,23,78.5,23c94.2,0,145.7-78,145.7-145.7c0-2.2-0.1-4.4-0.1-6.6
	C234,43.3,242.7,34.3,249.6,24z"/>
</svg>
