<svg xmlns="http://www.w3.org/2000/svg" xmlns:xlink="http://www.w3.org/1999/xlink" viewBox="0 0 72.00042 44.80099"><defs><style>.a{fill:none;}.b{clip-path:url(#a);}.c{fill:#fff;}</style><clipPath id="a"><rect class="a" width="71.99998" height="45"/></clipPath></defs><title>icon-behance</title><g class="b"><path class="c" d="M65.023,6.34H46.98V1.859H65.023ZM34.973,24.715a11.85126,11.85126,0,0,1,1.746,6.562,13.05887,13.05887,0,0,1-1.992,7.149,12.4117,12.4117,0,0,1-3.168,3.519,12.241,12.241,0,0,1-5.059,2.25,31.184,31.184,0,0,1-6.324.606H0V0H21.637c5.453.09,9.32,1.668,11.601,4.773a11.38739,11.38739,0,0,1,2.051,6.84,9.96745,9.96745,0,0,1-2.07,6.594,10.5473,10.5473,0,0,1-3.414,2.551,9.962,9.962,0,0,1,5.168,3.957ZM10.332,17.664h9.48a8.95329,8.95329,0,0,0,4.735-1.113c1.215-.738,1.816-2.051,1.816-3.938,0-2.086-.801-3.468-2.406-4.133a16.976,16.976,0,0,0-5.285-.703h-8.34ZM27.277,30.637A4.7991,4.7991,0,0,0,24.43,25.84a11.25225,11.25225,0,0,0-4.481-.762H10.332V37.02h9.469a10.50741,10.50741,0,0,0,4.535-.786c1.961-.976,2.941-2.836,2.941-5.597Zm44.438-7.285a42.081,42.081,0,0,1,.277,6.371H48.629q.1935,4.833,3.351,6.769a8.45238,8.45238,0,0,0,4.625,1.207,6.51979,6.51979,0,0,0,6.383-3.676h8.563a10.45859,10.45859,0,0,1-3.11,5.801q-4.3065,4.67551-12.07,4.684a17.52891,17.52891,0,0,1-11.305-3.949q-4.88557-3.95554-4.89-12.856,0-8.349,4.414-12.793a15.47439,15.47439,0,0,1,11.48-4.449,18.2681,18.2681,0,0,1,7.547,1.5,13.007,13.007,0,0,1,5.539,4.75,15.85214,15.85214,0,0,1,2.559,6.641Zm-8.43.836a7.01926,7.01926,0,0,0-2.242-5.075,7.30961,7.30961,0,0,0-4.973-1.738,6.64018,6.64018,0,0,0-5.004,1.844,8.64816,8.64816,0,0,0-2.238,4.969Zm0,0"/></g></svg>