<svg xmlns="http://www.w3.org/2000/svg" viewBox="0 0 469.09469 469.0947"><defs><style>.a{fill:#fff;}</style></defs><title>icon-codepen</title><path class="a" d="M234.54929,0C105.0088,0,0,105.0088,0,234.5493S105.0088,469.0947,234.54929,469.0947c129.5366,0,234.54539-105.0049,234.54539-234.5454S364.08589,0,234.54929,0Zm0,430.5762c-108.09129,0-196.02679-87.9395-196.02679-196.0269S126.458,38.5225,234.54929,38.5225c108.0874,0,196.023,87.9394,196.023,196.0268S342.63669,430.5762,234.54929,430.5762Z"/><path class="a" d="M379.46189,188.7373c-.0264-.1831-.0723-.3584-.1025-.5415-.0615-.3511-.126-.7021-.2178-1.0454-.0537-.2061-.1299-.4043-.1943-.6025-.0996-.3052-.19829-.6104-.32029-.9078-.085-.206-.18361-.4121-.27841-.6103-.1308-.2822-.2675-.5571-.4238-.8237-.1143-.1988-.2363-.3897-.3545-.5801-.168-.2598-.3398-.5117-.52729-.7559-.13671-.1826-.28131-.3657-.42681-.5415-.19819-.2285-.4043-.4575-.6221-.6714-.163-.1675-.3242-.3354-.49609-.4883-.22851-.2055-.46481-.4043-.705-.5947-.18661-.145-.37011-.29-.56451-.4272-.0732-.0459-.1367-.107-.206-.1529l-132.5616-88.374a12.45989,12.45989,0,0,0-13.8271,0L95.0723,179.9941c-.0684.0459-.1333.107-.2056.1529-.1948.1372-.3779.2822-.561.4272-.2442.1904-.481.3892-.7056.5947-.1753.1529-.3355.3208-.5.4883-.2168.2139-.4229.4429-.6177.6714-.1484.1758-.2934.3589-.4311.5415-.1831.2442-.3589.4961-.5225.7559-.126.1904-.2441.3813-.3584.5801-.1528.2666-.29.5415-.4238.8237-.0952.1982-.1944.4043-.2783.6103-.1221.2974-.2212.6026-.3204.9078-.0649.1982-.1372.3964-.1948.6025-.0913.3433-.1523.6943-.2173,1.0454-.0302.1831-.0761.3584-.0991.5415a12.03,12.03,0,0,0-.1142,1.625v88.374a12.24664,12.24664,0,0,0,.1142,1.6328c.023.1758.0689.3584.0991.5332.065.3516.126.7022.2173,1.0459.0576.2061.1299.4043.1948.6026.0992.3047.1983.6103.3204.915.0839.2071.1831.4053.2783.6035.1338.2813.271.5557.4238.8311.1143.1914.2324.3809.3584.5723.1636.2597.3394.5117.5225.7558.1377.1904.2827.3662.4311.541.1948.2285.4009.458.6177.6719.1645.167.3247.335.5.4873.2246.207.4614.4053.7056.5957.1831.1455.3662.2901.561.4268.0723.0459.1372.1074.2056.1523l132.5615,88.375a12.44161,12.44161,0,0,0,13.8271,0l132.5616-88.375c.0693-.0449.1328-.1064.206-.1523.1944-.1367.3779-.2813.56451-.4268.24019-.1904.47649-.3887.705-.5957.17189-.1523.33309-.3203.49609-.4873.2178-.2139.42391-.4434.6221-.6719.1455-.1748.2901-.3506.42681-.541.18749-.2441.35929-.4961.52729-.7558.1182-.1914.2402-.3809.3545-.5723.1563-.2754.293-.5498.4238-.8311.0948-.1982.19341-.3964.27841-.6035.122-.3047.22069-.6103.32029-.915.0644-.1983.1406-.3965.1943-.6026.0918-.3437.1563-.6943.2178-1.0459.0302-.1748.0761-.3574.1025-.5332a13.00656,13.00656,0,0,0,.1113-1.6328v-88.374A12.77255,12.77255,0,0,0,379.46189,188.7373Zm-132.4502-63.458L344.666,190.3774l-43.61911,29.1807-54.0352-36.146Zm-24.9282,0v58.1328l-54.0322,36.146-43.6226-29.1807ZM114.4502,213.6919l31.1836,20.8574-31.1836,20.8579Zm107.6333,130.1274-97.6548-65.0986,43.6226-29.1728,54.0322,36.1386Zm12.4658-79.7841-44.084-29.4859,44.084-29.4858,44.0806,29.4858Zm12.4624,79.7841V285.6865l54.0352-36.1386L344.666,278.7207Zm107.6328-88.4121-31.1797-20.8579,31.1797-20.8574Z"/></svg>