<svg id="Logo" xmlns="http://www.w3.org/2000/svg" viewBox="0 0 503.84104 503.84104"><title>icon-instagram</title><path d="M256,49.47057c67.2658,0,75.23317.25654,101.79732,1.46851,24.56183,1.12079,37.90117,5.22449,46.77825,8.6744a78.05239,78.05239,0,0,1,28.966,18.84456,78.0522,78.0522,0,0,1,18.84495,28.96643c3.44988,8.877,7.55364,22.21639,8.6744,46.77786,1.212,26.56451,1.46851,34.53191,1.46851,101.79768s-.25654,75.23317-1.46851,101.79732c-1.12076,24.56183-5.22452,37.90117-8.6744,46.77825a83.427,83.427,0,0,1-47.811,47.811c-8.87708,3.44988-22.21642,7.55364-46.77825,8.6744-26.56032,1.212-34.527,1.46851-101.79732,1.46851s-75.237-.25654-101.79732-1.46851c-24.56183-1.12076-37.9012-5.22452-46.77822-8.6744a78.05149,78.05149,0,0,1-28.966-18.84456,78.05338,78.05338,0,0,1-18.84495-28.9664c-3.44991-8.87708-7.55361-22.21642-8.6744-46.77792C49.72711,331.23317,49.47057,323.2658,49.47057,256s.25654-75.23317,1.46851-101.79732c1.12079-24.56183,5.22449-37.9012,8.6744-46.77822A78.05183,78.05183,0,0,1,78.458,78.45841a78.05255,78.05255,0,0,1,28.96643-18.84495c8.877-3.44991,22.21639-7.55361,46.77786-8.6744,26.56451-1.212,34.53191-1.46851,101.79768-1.46851m0-45.39108c-68.41761,0-76.99654.28978-103.86643,1.5157C125.31906,6.81874,107.00684,11.07734,90.98216,17.305A123.48755,123.48755,0,0,0,46.36181,46.36181,123.48755,123.48755,0,0,0,17.305,90.98216c-6.22766,16.02468-10.48626,34.3369-11.70981,61.15141C4.36926,179.00346,4.07948,187.58219,4.07948,256c0,68.41764.28978,76.99651,1.5157,103.8664,1.22356,26.81454,5.48216,45.12673,11.70981,61.15141a123.48872,123.48872,0,0,0,29.05682,44.62034A123.48632,123.48632,0,0,0,90.98216,494.695c16.02468,6.2277,34.3369,10.48627,61.15141,11.70981C179.00346,507.631,187.58239,507.92052,256,507.92052s76.99651-.28957,103.8664-1.51571c26.81454-1.22354,45.12673-5.48211,61.15141-11.70981A128.81681,128.81681,0,0,0,494.695,421.01781c6.2277-16.02468,10.48627-34.33687,11.70981-61.15141,1.22593-26.86989,1.51571-35.44876,1.51571-103.8664s-.28979-76.99654-1.51571-103.86643c-1.22354-26.81451-5.48211-45.12673-11.70981-61.15141a123.48632,123.48632,0,0,0-29.05683-44.62034A123.48732,123.48732,0,0,0,421.01781,17.305C404.99313,11.07734,386.68094,6.81874,359.8664,5.59518,332.99651,4.36926,324.41764,4.07948,256,4.07948Z" transform="translate(-4.07948 -4.07948)"/><path d="M256,126.63541A129.36456,129.36456,0,1,0,385.36459,256,129.36457,129.36457,0,0,0,256,126.63541Zm0,213.338A83.97348,83.97348,0,1,1,339.97351,256,83.9735,83.9735,0,0,1,256,339.97345Z" transform="translate(-4.07948 -4.07948)"/><circle cx="386.39634" cy="117.44471" r="30.23046"/></svg>