<svg id="Layer_1" xmlns="http://www.w3.org/2000/svg" viewBox="0 0 46.9935989 47.0020103"><style>.st0{fill:#5fc9dc}.st1{fill:#fff}</style><title>scroll-prompt</title><path class="st0" d="M21.644 47.002h-.08c-.863-.07-1.72-.186-2.57-.35a1.051 1.051 0 0 1 .4-2.063c.773.149 1.554.255 2.34.319a1.051 1.051 0 0 1-.09 2.094zm4.94-.14a1.05 1.05 0 0 1-.14-2.091c.777-.11 1.548-.26 2.31-.452a1.051 1.051 0 0 1 .52 2.037c-.84.213-1.692.38-2.55.5a.94.94 0 0 1-.14.005v.001zm-12.11-1.664c-.145 0-.288-.03-.42-.088a23.835 23.835 0 0 1-2.31-1.17 1.051 1.051 0 0 1 1.05-1.82c.68.391 1.381.747 2.1 1.065a1.051 1.051 0 0 1-.42 2.017v-.004zm19.16-.547a1.051 1.051 0 0 1-.47-1.988c.7-.357 1.381-.752 2.04-1.183a1.05 1.05 0 0 1 1.15 1.758c-.722.475-1.47.909-2.24 1.3-.15.074-.314.113-.48.112v.001zm-25.35-3.5c-.263 0-.517-.099-.71-.277a25.15 25.15 0 0 1-1.81-1.854 1.059 1.059 0 0 1 .1-1.483 1.047 1.047 0 0 1 1.477.097l.003.003a22.12 22.12 0 0 0 1.65 1.69 1.052 1.052 0 0 1-.71 1.826v-.002zm31.3-.891a1.051 1.051 0 0 1-.75-1.783 20.459 20.459 0 0 0 1.55-1.781 1.052 1.052 0 0 1 1.66 1.292 23.76 23.76 0 0 1-1.7 1.954c-.2.205-.474.32-.76.32v-.002zm-35.85-4.937c-.385 0-.738-.211-.92-.549a22.74 22.74 0 0 1-1.11-2.341 1.048 1.048 0 1 1 1.94-.794c.3.724.64 1.441 1.01 2.131a1.051 1.051 0 0 1-.92 1.555v-.002zm40.07-1.142a1.05 1.05 0 0 1-.95-1.5c.33-.709.63-1.445.89-2.187a1.047 1.047 0 1 1 1.988.656l-.008.025a22.917 22.917 0 0 1-.97 2.4c-.173.37-.543.606-.95.608v-.002zm-42.48-5.85c-.515 0-.954-.37-1.04-.877a22.121 22.121 0 0 1-.28-2.575 1.047 1.047 0 1 1 2.09-.118c.046.786.133 1.569.26 2.346a1.048 1.048 0 0 1-.857 1.21h-.003a.975.975 0 0 1-.17.016v-.002zm44.49-1.272a1.058 1.058 0 0 1-1.05-1.165c.088-.783.131-1.57.13-2.358v-.091a1.05 1.05 0 1 1 2.1-.01v.087a24.862 24.862 0 0 1-.14 2.6 1.047 1.047 0 0 1-1.04.94v-.003zm-44.5-6.126a1.042 1.042 0 0 1-1.042-1.21l.002-.01c.136-.854.323-1.7.56-2.532a1.04 1.04 0 0 1 1.275-.732l.015.004c.56.158.887.74.73 1.3-.21.757-.38 1.525-.51 2.3-.08.507-.517.88-1.03.882v-.002zm44.07-1.35c-.49 0-.913-.34-1.02-.817a22.104 22.104 0 0 0-.65-2.269 1.048 1.048 0 0 1 1.98-.689c.28.812.52 1.651.72 2.491a1.062 1.062 0 0 1-1.03 1.286v-.002zM3.693 13.93a1.055 1.055 0 0 1-.93-1.55c.412-.76.866-1.499 1.36-2.21a1.049 1.049 0 1 1 1.72 1.2 22.18 22.18 0 0 0-1.23 2.013 1.046 1.046 0 0 1-.92.549v-.002zm38.88-1.19c-.364-.001-.7-.19-.89-.5a21.591 21.591 0 0 0-1.35-1.934 1.05 1.05 0 0 1 1.65-1.3 22.87 22.87 0 0 1 1.48 2.122c.308.49.162 1.137-.328 1.445l-.002.002a1.087 1.087 0 0 1-.56.167v-.002zM8.224 8.082a1.037 1.037 0 0 1-.77-.337 1.051 1.051 0 0 1 .05-1.485 25.036 25.036 0 0 1 2-1.653 1.051 1.051 0 0 1 1.294 1.656l-.044.033c-.633.47-1.24.972-1.82 1.506-.193.18-.447.281-.71.282v-.002zm29.48-.9c-.244 0-.48-.083-.67-.237a21.537 21.537 0 0 0-1.9-1.394 1.05 1.05 0 1 1 1.14-1.762c.724.47 1.422.98 2.09 1.529a1.05 1.05 0 0 1-.66 1.864zm-23.31-3.164a1.05 1.05 0 0 1-.42-2.012 22.705 22.705 0 0 1 2.42-.916 1.05 1.05 0 1 1 .63 2c-.75.235-1.484.514-2.2.834-.136.06-.282.092-.43.094zm16.89-.518c-.123 0-.245-.022-.36-.066a21.464 21.464 0 0 0-2.25-.7 1.05 1.05 0 0 1 .5-2.04c.84.208 1.668.464 2.48.766a1.051 1.051 0 0 1-.37 2.042V3.5zm-9.73-1.315a1.051 1.051 0 0 1-.09-2.1c.67-.056 1.34-.084 2.01-.085.2 0 .39 0 .58.007a1.051 1.051 0 0 1-.05 2.1c-.18 0-.35-.006-.53-.006a21.764 21.764 0 0 0-1.92.084z"/><path class="st1" d="M30.09 30.464a2.254 2.254 0 0 1-1.95-1.127l-1.38-2.39h-6.526l-1.38 2.39a2.255 2.255 0 0 1-3.077.825 2.256 2.256 0 0 1-.824-3.077l6.593-11.421a2.26 2.26 0 0 1 1.95-1.126c.804 0 1.552.432 1.952 1.126l6.593 11.42a2.253 2.253 0 0 1-1.95 3.38zm-10.427-4.506h7.667l1.666 2.886a1.263 1.263 0 1 0 2.189-1.265L24.59 16.16a1.265 1.265 0 0 0-2.189 0l-6.593 11.42a1.266 1.266 0 0 0 1.092 1.896 1.27 1.27 0 0 0 1.097-.631l1.665-2.886zm6.208-2.527h-4.748l2.373-4.113 2.375 4.113zm-3.036-.989h1.323l-.662-1.146-.66 1.146zM35.62 35.258l.856-.494.46.795-.857.495-.46-.796zm-1.029-1.78l.856-.495.46.795-.857.495-.459-.795zm-1.028-1.78l.856-.495.46.795-.857.494-.46-.795zm-1.029-1.781l.856-.495.46.795-.856.495-.46-.795zM32.573 37.017l.856-.494.46.795-.857.494-.459-.795zm-1.028-1.78l.856-.495.46.795-.857.494-.46-.795zm-1.028-1.782l.856-.494.46.795-.857.494-.459-.795zm-1.028-1.78l.856-.495.46.795-.857.495-.46-.795z"/><path transform="rotate(-29.998 22.413 11.396)" class="st1" d="M21.919 10.937h.989v.918h-.989z"/><path transform="rotate(-29.998 20.356 7.835)" class="st1" d="M19.862 7.376h.989v.918h-.989z"/><path transform="rotate(-29.998 21.385 9.615)" class="st1" d="M20.89 9.156h.989v.918h-.989z"/><path transform="rotate(-29.998 20.395 14.935)" class="st1" d="M19.9 14.476h.989v.918H19.9z"/><path transform="rotate(-29.998 19.366 13.154)" class="st1" d="M18.872 12.695h.989v.918h-.989z"/><path transform="rotate(-29.998 17.31 9.593)" class="st1" d="M16.816 9.134h.989v.918h-.989z"/><path transform="rotate(-29.998 18.338 11.374)" class="st1" d="M17.844 10.914h.989v.918h-.989z"/><path transform="rotate(-59.995 26.638 7.835)" class="st1" d="M26.179 7.34h.918v.989h-.918z"/><path class="st1" d="M23.254 13.842l-.47-.816.713-.412.714.412-.47.816z"/><path transform="rotate(-59.995 24.582 11.396)" class="st1" d="M24.123 10.902h.918v.989h-.918z"/><path transform="rotate(-59.996 25.61 9.615)" class="st1" d="M25.151 9.121h.918v.989h-.918z"/><path transform="rotate(-59.983 27.626 13.154)" class="st1" d="M27.167 12.66h.918v.989h-.918z"/><path transform="rotate(-60.009 28.654 11.374)" class="st1" d="M28.195 10.879h.918v.989h-.918z"/><path transform="rotate(-59.996 26.598 14.935)" class="st1" d="M26.139 14.44h.918v.989h-.918z"/><path transform="rotate(-59.996 29.682 9.593)" class="st1" d="M29.223 9.099h.918v.989h-.918z"/><path class="st1" d="M38.958 26.947v-.989h.919v.99h-.919zm-2.056 0v-.989h.918v.99h-.918zm-2.056 0v-.989h.918v.99h-.918zm-2.056 0v-.989h.918v.99h-.918zM36.927 23.432v-.99h.918v.99h-.918zm-2.056 0v-.99h.918v.99h-.918zm-2.056 0v-.99h.918v.99h-.918zm-2.056 0v-.99h.918v.99h-.918zM13.286 26.947v-.989h.918v.99h-.918zm-2.057 0v-.989h.919v.99h-.919zm-2.056 0v-.989h.918v.99l-.918-.001zm-2.056 0v-.989h.918v.989h-.918zM15.317 23.432v-.99h.918v.99h-.918zm-2.056 0v-.99h.918v.99h-.918zm-2.056 0v-.99h.918v.99h-.918zm-2.056 0v-.99h.918v.99h-.918zM10.06 35.56l.46-.796.856.494-.46.796-.856-.495zm1.028-1.782l.46-.795.856.495-.46.795-.856-.495zm1.028-1.78l.46-.795.856.494-.46.795-.856-.494zm1.029-1.781l.459-.795.856.494-.46.795-.855-.494zM13.105 37.317l.46-.795.856.494-.46.795-.856-.494zm1.028-1.781l.46-.795.855.494-.459.795-.856-.494zm1.028-1.78l.46-.795.856.494-.46.795-.856-.494zm1.028-1.781l.46-.795.856.495-.46.794-.856-.494z"/></svg>