<svg version="1.1" id="Layer_1" xmlns="http://www.w3.org/2000/svg" xmlns:xlink="http://www.w3.org/1999/xlink" x="0px" y="0px"
	 viewBox="0 0 46.9936 47.00201" style="enable-background:new 0 0 46.9936 47.00201;" xml:space="preserve">
<path class="st0" d="M21.6436,47.00201h-0.08c-0.86246-0.06909-1.72042-0.18594-2.56995-0.35
	c-0.56709-0.12384-0.92641-0.68394-0.80257-1.25103c0.11975-0.54834,0.64921-0.90584,1.20257-0.81197
	c0.77361,0.14883,1.55478,0.25532,2.34,0.319c0.57635,0.06889,0.98772,0.59197,0.91883,1.16832
	C22.59088,46.59166,22.16232,46.98488,21.6436,47.00201z M26.5836,46.86201c-0.5799,0.00157-1.05127-0.46725-1.05284-1.04715
	c-0.00143-0.52796,0.3894-0.97488,0.91284-1.04385c0.77754-0.10917,1.54865-0.26006,2.31-0.452
	c0.5625-0.14359,1.1349,0.196,1.2785,0.7585s-0.196,1.13491-0.7585,1.2785l0,0l0,0c-0.8402,0.21323-1.69149,0.38015-2.55,0.5
	c-0.04648,0.00517-0.09327,0.00686-0.14,0.00507L26.5836,46.86201z M14.4736,45.19801c-0.14455-0.00029-0.28749-0.03024-0.42-0.088
	c-0.79065-0.34785-1.56181-0.73843-2.31006-1.17c-0.49441-0.30411-0.64868-0.95144-0.34457-1.44585
	c0.29207-0.47483,0.90405-0.63902,1.39457-0.37415c0.68091,0.39145,1.38187,0.74693,2.1,1.065
	c0.53352,0.22865,0.78066,0.84652,0.552,1.38004c-0.16647,0.38841-0.54937,0.63935-0.97194,0.63697V45.19801z M33.6336,44.65101
	c-0.58044-0.00333-1.04829-0.47657-1.04496-1.05701c0.00225-0.39349,0.22413-0.75277,0.57495-0.93099
	c0.70081-0.3573,1.3818-0.75221,2.04-1.183c0.48645-0.31605,1.137-0.17792,1.45305,0.30853
	c0.31466,0.4843,0.17928,1.13179-0.30305,1.44947l0,0c-0.72198,0.47453-1.46981,0.90854-2.24,1.3
	c-0.14907,0.07436-0.31351,0.11272-0.4801,0.112L33.6336,44.65101z M8.2836,41.15101c-0.26306,0.00013-0.51653-0.09876-0.71-0.277
	c-0.63479-0.58649-1.23892-1.20531-1.81-1.854c-0.37744-0.43863-0.33291-1.09901,0.1-1.483
	c0.43483-0.38117,1.09633-0.3377,1.47754,0.09711l0.00246,0.00289c0.51951,0.59232,1.0703,1.15645,1.65,1.69
	c0.42747,0.39349,0.45502,1.05901,0.06153,1.48648c-0.19861,0.21576-0.47827,0.33883-0.77153,0.33952L8.2836,41.15101z
	 M39.5836,40.26001c-0.58045-0.0023-1.04913-0.47471-1.04683-1.05516c0.00108-0.27187,0.10747-0.53275,0.29683-0.72784
	c0.55052-0.56334,1.06805-1.15799,1.55-1.781c0.36641-0.4509,1.02896-0.51939,1.47987-0.15299
	c0.43756,0.35557,0.51701,0.99288,0.18013,1.44499c-0.53072,0.68176-1.09823,1.33406-1.7,1.954
	c-0.19964,0.20504-0.47382,0.32048-0.75999,0.32L39.5836,40.26001z M3.7336,35.32301c-0.38416-0.00037-0.73727-0.21109-0.92-0.549
	c-0.41419-0.7586-0.78479-1.54021-1.11-2.341c-0.21926-0.53572,0.03728-1.14775,0.573-1.367
	c0.53572-0.21926,1.14774,0.03728,1.367,0.573c0.3,0.724,0.64,1.441,1.01,2.131c0.27833,0.5094,0.09101,1.14798-0.4184,1.42631
	c-0.15385,0.08406-0.32629,0.1283-0.5016,0.1287L3.7336,35.32301z M43.80355,34.18101c-0.15551-0.00005-0.30911-0.03419-0.45-0.1
	c-0.52456-0.24843-0.74841-0.87506-0.49998-1.39962c0.00001-0.00002,0.00002-0.00004,0.00003-0.00006l0.00012-0.00037
	c0.33-0.709,0.63-1.445,0.89-2.187c0.1808-0.54925,0.77262-0.84794,1.32187-0.66714c0.54925,0.1808,0.84794,0.77262,0.66714,1.32187
	c-0.00012,0.00036-0.00024,0.00073-0.00036,0.00109l-0.00867,0.02521c-0.27786,0.81764-0.60171,1.61892-0.97,2.4
	c-0.17249,0.36932-0.54246,0.60609-0.95007,0.608L43.80355,34.18101z M1.32355,28.33101
	c-0.51418,0.00047-0.95365-0.37013-1.04-0.877c-0.14355-0.85213-0.23704-1.71194-0.28-2.575
	c-0.04758-0.57628,0.38102-1.08203,0.9573-1.1296c0.57628-0.04758,1.08203,0.38102,1.12961,0.9573
	c0.00146,0.01807,0.00244,0.03619,0.00305,0.05432c0.04627,0.78595,0.13305,1.56899,0.26,2.346
	c0.0974,0.57055-0.28614,1.11204-0.85669,1.20947L1.4936,28.31701c-0.05609,0.01029-0.11297,0.01565-0.17,0.016L1.32355,28.33101z
	 M45.81355,27.05901c-0.04-0.00006-0.08-0.002-0.12-0.006c-0.57478-0.06701-0.98909-0.58336-0.92995-1.159
	c0.08841-0.78287,0.13181-1.57016,0.13-2.358v-0.091c-0.00276-0.5799,0.4651-1.05224,1.045-1.055
	c0.5799-0.00276,1.05224,0.4651,1.055,1.045l0,0v0.0871c-0.00122,0.86852-0.04795,1.73637-0.14,2.6
	c-0.05528,0.53303-0.50411,0.93828-1.04,0.939L45.81355,27.05901z M1.31355,20.93301c-0.0603,0.00031-0.12052-0.00437-0.18005-0.014
	c-0.568-0.09218-0.95376-0.62731-0.8617-1.19532l0.0018-0.01062c0.13635-0.85435,0.32336-1.69984,0.56006-2.532
	c0.15015-0.55439,0.72125-0.88213,1.27566-0.73206l0.0144,0.004c0.56029,0.15775,0.88696,0.73948,0.73,1.3
	c-0.21029,0.75717-0.38053,1.5249-0.51,2.3c-0.08044,0.50695-0.51686,0.8806-1.03015,0.882L1.31355,20.93301z M45.3835,19.58301
	c-0.48922-0.00029-0.9129-0.33965-1.02-0.817c-0.1761-0.76737-0.39308-1.52478-0.65-2.269
	c-0.19026-0.54676,0.09874-1.14424,0.6455-1.3345c0.54676-0.19026,1.14424,0.09874,1.3345,0.6455c0.28,0.812,0.52,1.651,0.72,2.491
	c0.12253,0.56438-0.22841,1.12323-0.79,1.258c-0.07867,0.01822-0.15912,0.02761-0.23987,0.028L45.3835,19.58301z M3.69367,13.93001
	c-0.58269-0.00095-1.05429-0.47408-1.05334-1.05677c0.00028-0.172,0.04261-0.34133,0.12329-0.49323
	c0.41283-0.76083,0.86684-1.4986,1.36-2.21c0.33137-0.47497,0.98503-0.59137,1.46-0.26s0.59137,0.98503,0.26,1.46
	c-0.44542,0.64871-0.856,1.32066-1.23,2.013c-0.18256,0.33808-0.53578,0.54886-0.92,0.549L3.69367,13.93001z M42.57367,12.74001
	c-0.36332-0.00097-0.70017-0.19022-0.89-0.5c-0.41442-0.66878-0.8651-1.31441-1.35-1.934
	c-0.35815-0.45629-0.27859-1.11653,0.17771-1.47468c0.45511-0.35722,1.11341-0.27912,1.47229,0.17468
	c0.53298,0.67884,1.0271,1.38731,1.48,2.122c0.30869,0.48959,0.16206,1.13672-0.32751,1.44543l-0.00244,0.00159
	c-0.16796,0.10576-0.36167,0.16351-0.56012,0.16698L42.57367,12.74001z M8.2237,8.08201
	c-0.29273,0.00139-0.57241-0.12101-0.77-0.337c-0.39607-0.42395-0.37369-1.08865,0.05-1.485c0.63765-0.5852,1.30521-1.13694,2-1.653
	c0.45729-0.35752,1.11783-0.27665,1.47536,0.18064s0.27665,1.11783-0.18064,1.47536l0,0
	c-0.01453,0.01141-0.02954,0.02246-0.04468,0.03308C10.1209,6.76555,9.5134,7.26823,8.93379,7.80201
	c-0.19266,0.18026-0.44635,0.281-0.71019,0.282L8.2237,8.08201z M37.7037,7.18201c-0.24392,0.0003-0.48051-0.08339-0.67-0.237
	c-0.60742-0.49899-1.2417-0.96436-1.9-1.394c-0.48828-0.31215-0.63106-0.96103-0.3189-1.44931
	c0.31215-0.48828,0.96103-0.63106,1.4493-0.31891c0.00321,0.00205,0.00641,0.00412,0.0096,0.00621
	c0.72469,0.47021,1.42245,0.98068,2.09,1.529c0.44956,0.3663,0.51706,1.02769,0.15076,1.47725
	C38.31577,7.03911,38.01823,7.18104,37.7037,7.18201z M14.3936,4.01801c-0.5799-0.00043-1.04965-0.47088-1.04922-1.05078
	c0.00031-0.41691,0.24725-0.79415,0.62922-0.96122c0.7886-0.35109,1.59658-0.65692,2.42-0.916
	c0.54279-0.20412,1.14827,0.07043,1.35239,0.61322c0.20411,0.54279-0.07043,1.14827-0.61322,1.35239
	c-0.03574,0.01344-0.07218,0.02492-0.10917,0.03439c-0.74882,0.23528-1.48339,0.51375-2.2,0.834
	C14.68816,3.98431,14.54184,4.01629,14.3936,4.01801z M31.2836,3.50001c-0.123-0.00005-0.24498-0.02241-0.36-0.066
	c-0.73662-0.27436-1.48775-0.50804-2.25-0.7c-0.56333-0.13807-0.90807-0.70667-0.77-1.27s0.70667-0.90807,1.27-0.77
	c0.84043,0.20842,1.66842,0.46416,2.48,0.766c0.54742,0.193,0.83474,0.79323,0.64174,1.34066
	c-0.15072,0.4275-0.55853,0.7102-1.01174,0.70134L31.2836,3.50001z M21.5536,2.18501
	c-0.5801,0.02004-1.06662-0.43398-1.08666-1.01409c-0.0198-0.57331,0.42376-1.05659,0.99666-1.08591
	c0.67005-0.056,1.34005-0.08433,2.01-0.085l0,0c0.2,0,0.39,0,0.58,0.007c0.57939,0.03502,1.02069,0.5331,0.98568,1.1125
	c-0.03322,0.54965-0.48506,0.98048-1.03568,0.9875c-0.18005,0-0.35-0.006-0.53-0.006c-0.61-0.00006-1.22,0.02561-1.83,0.077
	c-0.02967,0.00529-0.0598,0.00764-0.08994,0.007L21.5536,2.18501z"/>
</svg>
