<svg id="Layer_1" xmlns="http://www.w3.org/2000/svg" viewBox="0 0 46.9935989 47.0020103"><style>.st0{fill:#5fc9dc}.st1{fill:#181818}.st2{fill:#fff}</style><title>scroll-prompt</title><path class="st0" d="M21.644 47.002h-.08c-.863-.07-1.72-.186-2.57-.35a1.051 1.051 0 0 1 .4-2.063c.773.149 1.554.255 2.34.319a1.051 1.051 0 0 1-.09 2.094zm4.94-.14a1.05 1.05 0 0 1-.14-2.091c.777-.11 1.548-.26 2.31-.452a1.051 1.051 0 0 1 .52 2.037c-.84.213-1.692.38-2.55.5a.94.94 0 0 1-.14.005v.001zm-12.11-1.664c-.145 0-.288-.03-.42-.088a23.835 23.835 0 0 1-2.31-1.17 1.051 1.051 0 0 1 1.05-1.82c.68.391 1.381.747 2.1 1.065a1.051 1.051 0 0 1-.42 2.017v-.004zm19.16-.547a1.051 1.051 0 0 1-.47-1.988c.7-.357 1.381-.752 2.04-1.183a1.05 1.05 0 0 1 1.15 1.758c-.722.475-1.47.909-2.24 1.3-.15.074-.314.113-.48.112v.001zm-25.35-3.5c-.263 0-.517-.099-.71-.277a25.15 25.15 0 0 1-1.81-1.854 1.059 1.059 0 0 1 .1-1.483 1.047 1.047 0 0 1 1.477.097l.003.003a22.12 22.12 0 0 0 1.65 1.69 1.052 1.052 0 0 1-.71 1.826v-.002zm31.3-.891a1.051 1.051 0 0 1-.75-1.783 20.459 20.459 0 0 0 1.55-1.781 1.052 1.052 0 0 1 1.66 1.292 23.76 23.76 0 0 1-1.7 1.954c-.2.205-.474.32-.76.32v-.002zm-35.85-4.937c-.385 0-.738-.211-.92-.549a22.74 22.74 0 0 1-1.11-2.341 1.048 1.048 0 1 1 1.94-.794c.3.724.64 1.441 1.01 2.131a1.051 1.051 0 0 1-.92 1.555v-.002zm40.07-1.142a1.05 1.05 0 0 1-.95-1.5c.33-.709.63-1.445.89-2.187a1.047 1.047 0 1 1 1.988.656l-.008.025a22.917 22.917 0 0 1-.97 2.4c-.173.37-.543.606-.95.608v-.002zm-42.48-5.85c-.515 0-.954-.37-1.04-.877a22.121 22.121 0 0 1-.28-2.575 1.047 1.047 0 1 1 2.09-.118c.046.786.133 1.569.26 2.346a1.048 1.048 0 0 1-.857 1.21h-.003a.975.975 0 0 1-.17.016v-.002zm44.49-1.272a1.058 1.058 0 0 1-1.05-1.165c.088-.783.131-1.57.13-2.358v-.091a1.05 1.05 0 1 1 2.1-.01v.087a24.862 24.862 0 0 1-.14 2.6 1.047 1.047 0 0 1-1.04.94v-.003zm-44.5-6.126a1.042 1.042 0 0 1-1.042-1.21l.002-.01c.136-.854.323-1.7.56-2.532a1.04 1.04 0 0 1 1.275-.732l.015.004c.56.158.887.74.73 1.3-.21.757-.38 1.525-.51 2.3-.08.507-.517.88-1.03.882v-.002zm44.07-1.35c-.49 0-.913-.34-1.02-.817a22.104 22.104 0 0 0-.65-2.269 1.048 1.048 0 0 1 1.98-.689c.28.812.52 1.651.72 2.491a1.062 1.062 0 0 1-1.03 1.286v-.002zM3.693 13.93a1.055 1.055 0 0 1-.93-1.55c.412-.76.866-1.499 1.36-2.21a1.049 1.049 0 1 1 1.72 1.2 22.18 22.18 0 0 0-1.23 2.013 1.046 1.046 0 0 1-.92.549v-.002zm38.88-1.19c-.364-.001-.7-.19-.89-.5a21.591 21.591 0 0 0-1.35-1.934 1.05 1.05 0 0 1 1.65-1.3 22.87 22.87 0 0 1 1.48 2.122c.308.49.162 1.137-.328 1.445l-.002.002a1.087 1.087 0 0 1-.56.167v-.002zM8.224 8.082a1.037 1.037 0 0 1-.77-.337 1.051 1.051 0 0 1 .05-1.485 25.036 25.036 0 0 1 2-1.653 1.051 1.051 0 0 1 1.294 1.656l-.044.033c-.633.47-1.24.972-1.82 1.506-.193.18-.447.281-.71.282v-.002zm29.48-.9c-.244 0-.48-.083-.67-.237a21.537 21.537 0 0 0-1.9-1.394 1.05 1.05 0 1 1 1.14-1.762c.724.47 1.422.98 2.09 1.529a1.05 1.05 0 0 1-.66 1.864zm-23.31-3.164a1.05 1.05 0 0 1-.42-2.012 22.705 22.705 0 0 1 2.42-.916 1.05 1.05 0 1 1 .63 2c-.75.235-1.484.514-2.2.834-.136.06-.282.092-.43.094zm16.89-.518c-.123 0-.245-.022-.36-.066a21.464 21.464 0 0 0-2.25-.7 1.05 1.05 0 0 1 .5-2.04c.84.208 1.668.464 2.48.766a1.051 1.051 0 0 1-.37 2.042V3.5zm-9.73-1.315a1.051 1.051 0 0 1-.09-2.1c.67-.056 1.34-.084 2.01-.085.2 0 .39 0 .58.007a1.051 1.051 0 0 1-.05 2.1c-.18 0-.35-.006-.53-.006a21.764 21.764 0 0 0-1.92.084z"/><path class="st1" d="M33.24 35.216h-5.192v-.95h4.243V14.05l-3.845-3.845H14.702v24.062h4.244v.95h-5.193V9.254h15.086l4.402 4.402z"/><path class="st1" d="M32.766 14.327h-4.598V9.729h.95v3.648h3.648zM24.206 39.748h-1.42a2.43 2.43 0 0 1-2.427-2.428v-5.158a2.43 2.43 0 0 1 2.427-2.427h1.42a2.43 2.43 0 0 1 2.429 2.427v5.158a2.431 2.431 0 0 1-2.43 2.428zm-1.42-9.063a1.48 1.48 0 0 0-1.477 1.477v5.158a1.48 1.48 0 0 0 1.477 1.478h1.42a1.48 1.48 0 0 0 1.479-1.478v-5.158a1.48 1.48 0 0 0-1.48-1.477h-1.419z"/><circle class="st2" cx="23.496" cy="32.251" r=".63"/><g><path class="st1" d="M22.554 24.398a3.541 3.541 0 0 1-2.59-3.403 3.537 3.537 0 0 1 3.533-3.532 3.537 3.537 0 0 1 3.533 3.532 3.542 3.542 0 0 1-2.59 3.403l-.253-.915a2.59 2.59 0 0 0 1.893-2.488 2.586 2.586 0 0 0-2.583-2.583 2.586 2.586 0 0 0-2.584 2.583c0 1.156.78 2.18 1.894 2.488l-.253.915zM23.022 26.03h.95v2.195h-.95z"/><path class="st1" d="M26.039 26.505h-5.084l2.542-5.427 2.542 5.427zm-3.59-.95h2.097l-1.05-2.238-1.048 2.239z"/></g><g><path class="st1" d="M29.085 20.083a5.67 5.67 0 0 0-4.61-4.61l.163-.935a6.621 6.621 0 0 1 5.383 5.382l-.936.163zM17.909 20.083l-.936-.162a6.62 6.62 0 0 1 5.383-5.383l.162.935a5.669 5.669 0 0 0-4.609 4.61z"/><path class="st1" d="M31.182 22.597H28.11v-3.07h3.07v3.07zm-2.122-.95h1.172v-1.171H29.06v1.17zM25.032 16.447h-3.07v-3.07h3.07v3.07zm-2.12-.95h1.17v-1.17h-1.17v1.17zM18.883 22.597h-3.07v-3.07h3.07v3.07zm-2.12-.95h1.17v-1.171h-1.17v1.17z"/></g></svg>