<svg id="Layer_1" xmlns="http://www.w3.org/2000/svg" viewBox="0 0 17.9990005 18"><style>.st0{fill:#fff}</style><path class="st0" d="M16.667 0H1.327C.595 0 0 .581 0 1.298V16.7C0 17.418.595 18 1.327 18h15.34c.734 0 1.332-.582 1.332-1.299V1.298C17.999.58 17.401 0 16.667 0zM5.339 15.338H2.666v-8.59h2.673v8.59zM4.004 5.575A1.549 1.549 0 1 1 4 2.478a1.549 1.549 0 0 1 .003 3.097zm11.334 9.763h-2.67V11.16c0-.996-.017-2.277-1.387-2.277-1.388 0-1.6 1.086-1.6 2.206v4.249H7.014v-8.59h2.558v1.174h.037c.357-.675 1.227-1.387 2.526-1.387 2.704 0 3.203 1.778 3.203 4.092v4.71z"/></svg>