<svg xmlns="http://www.w3.org/2000/svg" viewBox="0 0 114.2 80.3"><path opacity=".12" fill-rule="evenodd" clip-rule="evenodd" d="M45.3 22.9L72.4 41l3.8-2-30.9-16.1z"/><path fill="#fff" d="M113.1 17.3S112 9.4 108.6 6c-4.3-4.5-9.2-4.6-11.4-4.8C81.1 0 57.1 0 57.1 0s-24 0-40 1.2c-2.2.2-7.1.2-11.4 4.8-3.4 3.5-4.6 11.3-4.6 11.3S0 26.6 0 35.8v8.7C0 53.7 1.1 63 1.1 63s1.1 7.9 4.5 11.3c4.3 4.5 10.1 4.4 12.6 4.9 9.1.9 38.8 1.1 38.8 1.1s24 0 40-1.2c2.2-.3 7.1-.3 11.4-4.8 3.4-3.5 4.5-11.3 4.5-11.3s1.1-9.2 1.1-18.5v-8.7c.2-9.2-.9-18.5-.9-18.5zM45.3 55V22.9L76.2 39 45.3 55z"/></svg>