<svg id="Layer_1" xmlns="http://www.w3.org/2000/svg" viewBox="0 0 345.0690308 323.4356689"><style>.st0{fill:#fff}</style><path class="st0" d="M176.015 0c13.56.002 60.262 3.64 82.27 52.982 7.246 16.244 5.392 45.677 3.901 69.324-.236 3.75-.465 7.384-.652 10.86l-.081 1.49 1 1.111c.399.45 4.168 4.385 12.544 4.71l.14.004.137-.004c5.538-.209 11.78-1.925 18.559-5.103.994-.468 2.322-.695 3.727-.695 1.604 0 3.303.3 4.708.892l.21.085c3.552 1.244 6.065 3.594 6.107 5.715.02 1.207-.881 5.529-13.475 10.503-1.231.488-2.853 1.001-4.73 1.595-8.196 2.605-20.577 6.53-24.746 16.345-2.348 5.54-1.709 12.066 1.907 19.403 1.49 3.472 24.878 56.173 77.528 64.849a2.42 2.42 0 0 1-.216.842c-.895 2.103-6.567 9.359-41.856 14.806-5.524.852-6.879 7.038-8.45 14.237-.56 2.574-1.141 5.17-1.934 7.86-.238.813-.284.861-1.158.861h-.412c-1.565 0-3.945-.325-6.7-.864-5.002-.978-11.861-2.177-20.618-2.177-4.887 0-9.926.425-14.976 1.262-10.798 1.798-19.584 8.012-28.89 14.584-12.488 8.833-25.398 17.959-45.1 17.959a52.42 52.42 0 0 1-2.54-.069l-.221-.01-.224.02c-.484.04-.97.059-1.469.059-19.697 0-32.613-9.126-45.1-17.955-9.301-6.576-18.09-12.79-28.886-14.588-5.051-.837-10.088-1.262-14.976-1.262-8.754 0-15.613 1.334-20.619 2.313-2.753.542-5.136 1.004-6.698 1.004-1.276 0-1.302-.074-1.572-.996-.791-2.692-1.371-5.359-1.933-7.929-1.572-7.199-2.932-13.422-8.45-14.274C6.78 264.3 1.111 257.026.214 254.93A2.438 2.438 0 0 1 0 254.07c52.646-8.673 76.035-61.37 77.524-64.85 3.616-7.341 4.26-13.864 1.909-19.4-4.165-9.819-16.549-13.747-24.745-16.352-1.878-.592-3.5-1.107-4.73-1.595-10.642-4.202-13.91-8.435-13.42-11.002.563-2.958 5.69-5.966 10.164-5.966 1.007 0 1.886.16 2.539.468 7.269 3.401 13.908 5.132 19.722 5.132 9.152 0 13.227-4.258 13.659-4.74l.992-1.11-.081-1.485c-.187-3.47-.414-7.103-.652-10.85-1.49-23.647-3.341-53.06 3.904-69.307C108.709 3.853 155.18.064 168.903.064c.338 0 6.3-.059 6.3-.059.257-.003.525-.005.812-.005"/></svg>