<svg xmlns="http://www.w3.org/2000/svg" viewBox="0 0 469.09469 469.0947"><defs><style>.a{fill:#fff}</style></defs><title>icon-codepen</title><path class="a" d="M234.55 0C105.008 0 0 105.009 0 234.55s105.009 234.545 234.55 234.545c129.536 0 234.545-105.005 234.545-234.546S364.085 0 234.549 0zm0 430.576c-108.092 0-196.028-87.94-196.028-196.027S126.459 38.523 234.55 38.523c108.088 0 196.023 87.939 196.023 196.026S342.637 430.576 234.55 430.576z"/><path class="a" d="M379.462 188.737c-.027-.183-.072-.358-.103-.541a12.167 12.167 0 0 0-.217-1.046c-.054-.206-.13-.404-.195-.602-.1-.305-.198-.61-.32-.908-.085-.206-.184-.412-.278-.61a9.6 9.6 0 0 0-.424-.824c-.115-.199-.237-.39-.355-.58a14.262 14.262 0 0 0-.954-1.297 11.493 11.493 0 0 0-.622-.672c-.163-.167-.324-.335-.496-.488a14.87 14.87 0 0 0-.705-.595c-.187-.145-.37-.29-.565-.427-.073-.046-.136-.107-.206-.153L241.461 91.62a12.46 12.46 0 0 0-13.827 0L95.072 179.994c-.068.046-.133.107-.205.153-.195.137-.378.282-.561.427-.244.19-.481.39-.706.595-.175.153-.335.32-.5.488-.217.214-.423.443-.618.672a12.67 12.67 0 0 0-.43.541c-.184.244-.36.496-.523.756-.126.19-.244.381-.359.58-.152.267-.29.542-.423.824-.096.198-.195.404-.279.61-.122.298-.22.603-.32.908-.065.198-.137.396-.195.602-.091.344-.152.695-.217 1.046-.03.183-.076.358-.1.541a12.03 12.03 0 0 0-.114 1.625v88.374a12.247 12.247 0 0 0 .115 1.633c.023.176.069.358.099.533.065.352.126.703.217 1.046.058.206.13.405.195.603.1.305.198.61.32.915.084.207.183.405.279.603.133.282.27.556.423.831.115.192.233.381.359.573.163.26.34.511.522.756.138.19.283.366.431.54.195.229.401.459.618.672.165.167.325.335.5.488.225.207.462.405.706.595.183.146.366.29.56.427.073.046.138.108.206.153l132.562 88.375a12.442 12.442 0 0 0 13.827 0l132.561-88.375c.07-.045.133-.107.207-.153.194-.136.377-.281.564-.427.24-.19.477-.388.705-.595.172-.153.333-.32.496-.488.218-.213.424-.443.622-.671.146-.175.29-.351.427-.541.187-.245.36-.497.527-.756.118-.192.24-.381.355-.573.156-.275.293-.55.424-.83.094-.199.193-.397.278-.604.122-.305.22-.61.32-.915.065-.198.14-.397.195-.603.091-.343.156-.694.217-1.046.03-.174.077-.357.103-.533a13.007 13.007 0 0 0 .111-1.633v-88.374a12.773 12.773 0 0 0-.111-1.625zm-132.45-63.458l97.654 65.098-43.62 29.181-54.034-36.146zm-24.929 0v58.133l-54.032 36.146-43.622-29.18zM114.45 213.692l31.184 20.857-31.184 20.858zm107.633 130.127l-97.654-65.098 43.622-29.173 54.033 36.138zm12.466-79.784l-44.084-29.486 44.084-29.485 44.08 29.485zm12.463 79.784v-58.132l54.035-36.14 43.619 29.174zm107.633-88.412l-31.18-20.858 31.18-20.857z"/></svg>