<svg xmlns="http://www.w3.org/2000/svg" viewBox="0 0 72.00042 44.80099"><defs><style>.a{fill:none}.b{clip-path:url(#a)}.c{fill:#fff}</style><clipPath id="a"><path class="a" d="M0 0h72v45H0z"/></clipPath></defs><title>icon-behance</title><path class="b c" d="M65.023 6.34H46.98V1.859h18.043zm-30.05 18.375a11.851 11.851 0 0 1 1.746 6.562 13.059 13.059 0 0 1-1.992 7.149 12.412 12.412 0 0 1-3.168 3.519 12.241 12.241 0 0 1-5.059 2.25 31.184 31.184 0 0 1-6.324.606H0V0h21.637c5.453.09 9.32 1.668 11.601 4.773a11.387 11.387 0 0 1 2.051 6.84 9.967 9.967 0 0 1-2.07 6.594 10.547 10.547 0 0 1-3.414 2.551 9.962 9.962 0 0 1 5.168 3.957zm-24.641-7.051h9.48a8.953 8.953 0 0 0 4.735-1.113c1.215-.738 1.816-2.051 1.816-3.938 0-2.086-.801-3.468-2.406-4.133a16.976 16.976 0 0 0-5.285-.703h-8.34zm16.945 12.973a4.8 4.8 0 0 0-2.847-4.797 11.252 11.252 0 0 0-4.481-.762h-9.617V37.02h9.469a10.507 10.507 0 0 0 4.535-.786c1.961-.976 2.941-2.836 2.941-5.597zm44.438-7.285a42.081 42.081 0 0 1 .277 6.371H48.629q.194 4.833 3.351 6.769a8.452 8.452 0 0 0 4.625 1.207 6.52 6.52 0 0 0 6.383-3.676h8.563a10.459 10.459 0 0 1-3.11 5.801q-4.306 4.676-12.07 4.684a17.529 17.529 0 0 1-11.305-3.949q-4.886-3.956-4.89-12.856 0-8.349 4.414-12.793a15.474 15.474 0 0 1 11.48-4.449 18.268 18.268 0 0 1 7.547 1.5 13.007 13.007 0 0 1 5.539 4.75 15.852 15.852 0 0 1 2.559 6.641zm-8.43.836a7.02 7.02 0 0 0-2.242-5.075 7.31 7.31 0 0 0-4.973-1.738 6.64 6.64 0 0 0-5.004 1.844 8.648 8.648 0 0 0-2.238 4.969zm0 0"/></svg>