<svg xmlns="http://www.w3.org/2000/svg" width="767.937" height="767.938" viewBox="0 0 767.937 767.938"><defs><style>.cls-1{fill:#fff;fill-rule:evenodd}</style></defs><path id="ball" class="cls-1" d="M384.094 768.732C172.365 768.732.112 596.479.112 384.75S172.365.768 384.094.768 768.076 173.021 768.076 384.75 595.822 768.732 384.094 768.732zm323.832-331.42c-11.221-3.542-101.518-30.473-204.3-14.021 42.9 117.883 60.355 213.9 63.716 233.846 73.585-49.753 125.965-128.566 140.584-219.825zM512.209 687.164c-4.878-28.775-23.921-129.061-69.967-248.719-.722.246-1.442.48-2.164.731-184.992 64.462-251.4 192.752-257.3 204.818a327.516 327.516 0 0 0 329.431 43.17zM140.43 604.548c7.429-12.718 97.442-161.757 266.594-216.433q6.412-2.073 12.924-3.9c-8.233-18.631-17.2-37.284-26.59-55.659-163.79 49.018-322.727 46.97-337.077 46.675-.1 3.33-.167 6.668-.167 10.022a326.672 326.672 0 0 0 84.316 219.295zM63.042 318.076c14.67.193 149.8.78 303.213-39.961-54.344-96.6-112.954-177.824-121.6-189.682C152.9 131.713 84.309 216.3 63.042 318.076zM307.235 66.388c9.066 12.139 68.634 93.258 122.379 192 116.625-43.713 166-110.073 171.9-118.475a327.589 327.589 0 0 0-294.279-73.525zm330.736 111.455c-6.914 9.357-61.871 79.809-183.141 129.319 7.632 15.623 14.948 31.512 21.76 47.506q3.621 8.5 7.065 16.926c109.132-13.722 217.566 8.27 228.379 10.557a326.422 326.422 0 0 0-74.063-204.308z" transform="translate(-.125 -.781)"/></svg>