<svg xmlns="http://www.w3.org/2000/svg" viewBox="0 0 503.84104 503.84104"><title>icon-instagram</title><path d="M251.92 45.391c67.266 0 75.234.257 101.798 1.469 24.562 1.12 37.901 5.224 46.778 8.674a78.052 78.052 0 0 1 28.966 18.845 78.052 78.052 0 0 1 18.845 28.966c3.45 8.877 7.554 22.216 8.674 46.778 1.212 26.564 1.469 34.532 1.469 101.798s-.257 75.233-1.469 101.797c-1.12 24.562-5.224 37.901-8.674 46.778a83.427 83.427 0 0 1-47.811 47.811c-8.877 3.45-22.216 7.554-46.778 8.674-26.56 1.212-34.527 1.469-101.798 1.469s-75.237-.257-101.797-1.469c-24.562-1.12-37.901-5.224-46.778-8.674a78.051 78.051 0 0 1-28.966-18.844 78.053 78.053 0 0 1-18.845-28.967c-3.45-8.877-7.554-22.216-8.674-46.778-1.212-26.564-1.469-34.532-1.469-101.797s.257-75.234 1.469-101.798c1.12-24.562 5.224-37.901 8.674-46.778a78.052 78.052 0 0 1 18.845-28.966 78.053 78.053 0 0 1 28.966-18.845c8.877-3.45 22.216-7.554 46.778-8.674 26.564-1.212 34.532-1.469 101.797-1.469m0-45.391c-68.417 0-76.996.29-103.866 1.516-26.814 1.223-45.127 5.482-61.151 11.71a123.488 123.488 0 0 0-44.62 29.056 123.488 123.488 0 0 0-29.057 44.62c-6.228 16.025-10.487 34.338-11.71 61.152C.29 174.924 0 183.503 0 251.921c0 68.417.29 76.996 1.516 103.866 1.223 26.814 5.482 45.127 11.71 61.151a123.489 123.489 0 0 0 29.056 44.62 123.486 123.486 0 0 0 44.62 29.058c16.025 6.227 34.338 10.486 61.152 11.71 26.87 1.226 35.449 1.515 103.867 1.515s76.996-.29 103.866-1.516c26.814-1.223 45.127-5.482 61.151-11.71a128.817 128.817 0 0 0 73.678-73.677c6.227-16.024 10.486-34.337 11.71-61.151 1.225-26.87 1.515-35.449 1.515-103.866s-.29-76.997-1.516-103.867c-1.223-26.814-5.482-45.127-11.71-61.151a123.486 123.486 0 0 0-29.056-44.62 123.487 123.487 0 0 0-44.62-29.057C400.913 6.998 382.6 2.739 355.786 1.516 328.917.29 320.338 0 251.92 0z"/><path d="M251.92 122.556A129.365 129.365 0 1 0 381.286 251.92a129.365 129.365 0 0 0-129.364-129.365zm0 213.338a83.973 83.973 0 1 1 83.974-83.973 83.974 83.974 0 0 1-83.973 83.973z"/><circle cx="386.396" cy="117.445" r="30.23"/></svg>