<svg xmlns="http://www.w3.org/2000/svg" viewBox="0 0 249.6 202.8"><path fill="#FFF" d="M249.6 24c-9.2 4.1-19.1 6.8-29.4 8.1a51.12 51.12 0 0 0 22.5-28.3c-9.9 5.9-20.8 10.1-32.5 12.4C200.8 6.2 187.5 0 172.8 0c-28.3 0-51.2 22.9-51.2 51.2 0 4 .5 7.9 1.3 11.7C80.4 60.7 42.6 40.4 17.4 9.4 13 17 10.5 25.8 10.5 35.2c0 17.8 9 33.4 22.8 42.6-8.4-.3-16.3-2.6-23.2-6.4v.6c0 24.8 17.7 45.5 41.1 50.2-4.3 1.2-8.8 1.8-13.5 1.8-3.3 0-6.5-.3-9.6-.9 6.5 20.3 25.4 35.1 47.8 35.6-17.5 13.7-39.6 21.9-63.6 21.9-4.1 0-8.2-.3-12.2-.7 22.7 14.5 49.6 23 78.5 23 94.2 0 145.7-78 145.7-145.7 0-2.2-.1-4.4-.1-6.6 9.8-7.3 18.5-16.3 25.4-26.6z"/></svg>