<svg xmlns="http://www.w3.org/2000/svg" viewBox="0 0 46.9936 47.00201"><defs><style>.a{fill:#5fc9dc;}</style></defs><title>scroll-prompt</title><path class="a" d="M21.65,47h-.08a23.413,23.413,0,0,1-2.56995-.35,1.051,1.051,0,0,1,.4-2.063,21.65067,21.65067,0,0,0,2.34.319A1.051,1.051,0,0,1,21.65,47ZM26.59,46.86a1.05,1.05,0,0,1-.14-2.091A21.91381,21.91381,0,0,0,28.76,44.317a1.05116,1.05116,0,0,1,.52,2.037h0a23.67136,23.67136,0,0,1-2.55.5.94112.94112,0,0,1-.14.00507ZM14.48,45.196a1.05644,1.05644,0,0,1-.42-.088,23.83459,23.83459,0,0,1-2.31006-1.17,1.051,1.051,0,0,1,1.05-1.82,22.47833,22.47833,0,0,0,2.1,1.065A1.051,1.051,0,0,1,14.48,45.2Zm19.16-.547a1.051,1.051,0,0,1-.47-1.988,21.83937,21.83937,0,0,0,2.04-1.183,1.05037,1.05037,0,0,1,1.15,1.758h0a23.29617,23.29617,0,0,1-2.24,1.3,1.06517,1.06517,0,0,1-.4801.112Zm-25.35-3.5a1.04712,1.04712,0,0,1-.71-.277A25.14949,25.14949,0,0,1,5.77,39.018a1.059,1.059,0,0,1,.1-1.483,1.04707,1.04707,0,0,1,1.47754.09711L7.35,37.635A22.12145,22.12145,0,0,0,9,39.325a1.052,1.052,0,0,1-.71,1.826Zm31.3-.891a1.051,1.051,0,0,1-.75-1.783,20.46,20.46,0,0,0,1.55-1.781,1.052,1.052,0,0,1,1.66,1.292,23.75859,23.75859,0,0,1-1.7,1.954A1.05822,1.05822,0,0,1,39.59,40.26Zm-35.85-4.937a1.04706,1.04706,0,0,1-.92-.549,22.7389,22.7389,0,0,1-1.11-2.341A1.04807,1.04807,0,0,1,3.65,31.637c.3.724.64,1.441,1.01,2.131A1.05105,1.05105,0,0,1,3.74,35.323Zm40.06995-1.142a1.06415,1.06415,0,0,1-.45-.1A1.05093,1.05093,0,0,1,42.86,32.67932l.00012-.00037c.33-.709.63-1.445.89-2.187a1.047,1.047,0,1,1,1.98865.65582l-.00867.02521a22.91808,22.91808,0,0,1-.97,2.4,1.05405,1.05405,0,0,1-.95007.608Zm-42.48-5.85a1.054,1.054,0,0,1-1.04-.877,22.12094,22.12094,0,0,1-.28-2.575,1.047,1.047,0,0,1,2.08691-.1723c.00146.01807.00244.03619.00305.05432a22.89206,22.89206,0,0,0,.26,2.346,1.04806,1.04806,0,0,1-.85669,1.20947L1.5,28.315a.97569.97569,0,0,1-.17.016Zm44.49-1.272c-.04-.00006-.08-.002-.12-.006A1.058,1.058,0,0,1,44.77,25.892a20.59252,20.59252,0,0,0,.13-2.358v-.091A1.05,1.05,0,1,1,47,23.433v.0871a24.86265,24.86265,0,0,1-.14,2.6,1.047,1.047,0,0,1-1.04.939Zm-44.5-6.126a1.09169,1.09169,0,0,1-.18005-.014A1.04206,1.04206,0,0,1,.2782,19.72168L.28,19.71106a21.83,21.83,0,0,1,.56006-2.532A1.04008,1.04008,0,0,1,2.11572,16.447l.0144.004a1.055,1.055,0,0,1,.73,1.3,22.36443,22.36443,0,0,0-.51,2.3,1.04592,1.04592,0,0,1-1.03015.882Zm44.06995-1.35a1.046,1.046,0,0,1-1.02-.817,22.103,22.103,0,0,0-.65-2.269,1.04822,1.04822,0,0,1,1.98-.689c.28.812.52,1.651.72,2.491a1.062,1.062,0,0,1-.79,1.258,1.08678,1.08678,0,0,1-.23987.028ZM3.70007,13.928a1.05506,1.05506,0,0,1-.93005-1.55,23.81582,23.81582,0,0,1,1.36-2.21,1.04861,1.04861,0,0,1,1.72,1.2,22.18092,22.18092,0,0,0-1.23,2.013,1.046,1.046,0,0,1-.92.549Zm38.88-1.19a1.0471,1.0471,0,0,1-.89-.5,21.5906,21.5906,0,0,0-1.35-1.934,1.0503,1.0503,0,0,1,1.65-1.3,22.871,22.871,0,0,1,1.48,2.122,1.048,1.048,0,0,1-.32751,1.44543l-.00244.00159A1.0869,1.0869,0,0,1,42.58,12.74ZM8.2301,8.08a1.03691,1.03691,0,0,1-.77-.337,1.051,1.051,0,0,1,.05-1.485,25.03566,25.03566,0,0,1,2-1.653A1.051,1.051,0,1,1,10.80481,6.261c-.01453.01141-.02954.02246-.04468.03308A22.29362,22.29362,0,0,0,8.94019,7.8,1.04525,1.04525,0,0,1,8.23,8.082Zm29.48-.9a1.06186,1.06186,0,0,1-.67-.237,21.53665,21.53665,0,0,0-1.9-1.394,1.04933,1.04933,0,1,1,1.14-1.762,23.11337,23.11337,0,0,1,2.09,1.529,1.05,1.05,0,0,1-.66,1.864ZM14.4,4.016a1.05,1.05,0,0,1-.42-2.012,22.70433,22.70433,0,0,1,2.42-.916,1.05,1.05,0,1,1,.63,2,20.32247,20.32247,0,0,0-2.2.834A1.08824,1.08824,0,0,1,14.4,4.016Zm16.89-.518a1.01711,1.01711,0,0,1-.36-.066,21.46449,21.46449,0,0,0-2.25-.7,1.05018,1.05018,0,1,1,.5-2.04,22.98912,22.98912,0,0,1,2.48.766A1.051,1.051,0,0,1,31.29,3.5Zm-9.73-1.315a1.051,1.051,0,0,1-.09-2.1q1.00507-.084,2.01-.085h0c.2,0,.39,0,.58.007a1.051,1.051,0,0,1-.05,2.1c-.18005,0-.35-.006-.53-.006q-.915-.00009-1.83.077A.45693.45693,0,0,1,21.56006,2.183Z" transform="translate(-0.0064 0.00201)"/><polygon class="a" points="14.684 17.623 23.984 24.514 33.284 17.623 33.284 23.468 23.984 30.36 14.684 23.468 14.684 17.623"/></svg>