<svg id="Layer_1" xmlns="http://www.w3.org/2000/svg" viewBox="0 0 46.9935989 47.0020103"><style>.st0{fill:#5fc9dc}.st1{fill:#fff}</style><title>scroll-prompt</title><path class="st0" d="M21.644 47.002h-.08c-.863-.07-1.72-.186-2.57-.35a1.051 1.051 0 0 1 .4-2.063c.773.149 1.554.255 2.34.319a1.051 1.051 0 0 1-.09 2.094zm4.94-.14a1.05 1.05 0 0 1-.14-2.091c.777-.11 1.548-.26 2.31-.452a1.051 1.051 0 0 1 .52 2.037c-.84.213-1.692.38-2.55.5a.94.94 0 0 1-.14.005v.001zm-12.11-1.664c-.145 0-.288-.03-.42-.088a23.835 23.835 0 0 1-2.31-1.17 1.051 1.051 0 0 1 1.05-1.82c.68.391 1.381.747 2.1 1.065a1.051 1.051 0 0 1-.42 2.017v-.004zm19.16-.547a1.051 1.051 0 0 1-.47-1.988c.7-.357 1.381-.752 2.04-1.183a1.05 1.05 0 0 1 1.15 1.758c-.722.475-1.47.909-2.24 1.3-.15.074-.314.113-.48.112v.001zm-25.35-3.5c-.263 0-.517-.099-.71-.277a25.15 25.15 0 0 1-1.81-1.854 1.059 1.059 0 0 1 .1-1.483 1.047 1.047 0 0 1 1.477.097l.003.003a22.12 22.12 0 0 0 1.65 1.69 1.052 1.052 0 0 1-.71 1.826v-.002zm31.3-.891a1.051 1.051 0 0 1-.75-1.783 20.459 20.459 0 0 0 1.55-1.781 1.052 1.052 0 0 1 1.66 1.292 23.76 23.76 0 0 1-1.7 1.954c-.2.205-.474.32-.76.32v-.002zm-35.85-4.937c-.385 0-.738-.211-.92-.549a22.74 22.74 0 0 1-1.11-2.341 1.048 1.048 0 1 1 1.94-.794c.3.724.64 1.441 1.01 2.131a1.051 1.051 0 0 1-.92 1.555v-.002zm40.07-1.142a1.05 1.05 0 0 1-.95-1.5c.33-.709.63-1.445.89-2.187a1.047 1.047 0 1 1 1.988.656l-.008.025a22.917 22.917 0 0 1-.97 2.4c-.173.37-.543.606-.95.608v-.002zm-42.48-5.85c-.515 0-.954-.37-1.04-.877a22.121 22.121 0 0 1-.28-2.575 1.047 1.047 0 1 1 2.09-.118c.046.786.133 1.569.26 2.346a1.048 1.048 0 0 1-.857 1.21h-.003a.975.975 0 0 1-.17.016v-.002zm44.49-1.272a1.058 1.058 0 0 1-1.05-1.165c.088-.783.131-1.57.13-2.358v-.091a1.05 1.05 0 1 1 2.1-.01v.087a24.862 24.862 0 0 1-.14 2.6 1.047 1.047 0 0 1-1.04.94v-.003zm-44.5-6.126a1.042 1.042 0 0 1-1.042-1.21l.002-.01c.136-.854.323-1.7.56-2.532a1.04 1.04 0 0 1 1.275-.732l.015.004c.56.158.887.74.73 1.3-.21.757-.38 1.525-.51 2.3-.08.507-.517.88-1.03.882v-.002zm44.07-1.35c-.49 0-.913-.34-1.02-.817a22.104 22.104 0 0 0-.65-2.269 1.048 1.048 0 0 1 1.98-.689c.28.812.52 1.651.72 2.491a1.062 1.062 0 0 1-1.03 1.286v-.002zM3.693 13.93a1.055 1.055 0 0 1-.93-1.55c.412-.76.866-1.499 1.36-2.21a1.049 1.049 0 1 1 1.72 1.2 22.18 22.18 0 0 0-1.23 2.013 1.046 1.046 0 0 1-.92.549v-.002zm38.88-1.19c-.364-.001-.7-.19-.89-.5a21.591 21.591 0 0 0-1.35-1.934 1.05 1.05 0 0 1 1.65-1.3 22.87 22.87 0 0 1 1.48 2.122c.308.49.162 1.137-.328 1.445l-.002.002a1.087 1.087 0 0 1-.56.167v-.002zM8.224 8.082a1.037 1.037 0 0 1-.77-.337 1.051 1.051 0 0 1 .05-1.485 25.036 25.036 0 0 1 2-1.653 1.051 1.051 0 0 1 1.294 1.656l-.044.033c-.633.47-1.24.972-1.82 1.506-.193.18-.447.281-.71.282v-.002zm29.48-.9c-.244 0-.48-.083-.67-.237a21.537 21.537 0 0 0-1.9-1.394 1.05 1.05 0 1 1 1.14-1.762c.724.47 1.422.98 2.09 1.529a1.05 1.05 0 0 1-.66 1.864zm-23.31-3.164a1.05 1.05 0 0 1-.42-2.012 22.705 22.705 0 0 1 2.42-.916 1.05 1.05 0 1 1 .63 2c-.75.235-1.484.514-2.2.834-.136.06-.282.092-.43.094zm16.89-.518c-.123 0-.245-.022-.36-.066a21.464 21.464 0 0 0-2.25-.7 1.05 1.05 0 0 1 .5-2.04c.84.208 1.668.464 2.48.766a1.051 1.051 0 0 1-.37 2.042V3.5zm-9.73-1.315a1.051 1.051 0 0 1-.09-2.1c.67-.056 1.34-.084 2.01-.085.2 0 .39 0 .58.007a1.051 1.051 0 0 1-.05 2.1c-.18 0-.35-.006-.53-.006a21.764 21.764 0 0 0-1.92.084z"/><path class="st1" d="M12.752 32.724h-.95V9.94h6.585v.95h-5.635zM27.85 36.224v-.95a2.552 2.552 0 0 0 2.548-2.55V10.89h-5.633v-.95h6.584v22.785c0 1.93-1.57 3.5-3.499 3.5z"/><path class="st1" d="M27.849 36.224H12.278c-1.93 0-3.5-1.57-3.5-3.5v-.474l16.521-.001v.475a2.553 2.553 0 0 0 2.55 2.55v.95zM9.773 33.2a2.554 2.554 0 0 0 2.505 2.074h13.176a3.495 3.495 0 0 1-1.073-2.075H9.773zM21.575 12.05a1.638 1.638 0 0 1-1.636-1.636c0-.902.734-1.636 1.636-1.636.903 0 1.637.734 1.637 1.636 0 .902-.734 1.636-1.637 1.636zm0-2.322a.687.687 0 1 0 .002 1.373.687.687 0 0 0-.002-1.373z"/><g><path class="st1" d="M27.314 24.979h-.95V23.64a.796.796 0 0 0-.235-.568.797.797 0 0 0-.57-.237h-7.967a.798.798 0 0 0-.569.235.8.8 0 0 0-.236.57v1.338h-.95V23.64c0-.47.183-.91.514-1.241.331-.331.772-.514 1.241-.514h7.967c.47 0 .91.183 1.241.515.331.33.514.77.514 1.24v1.338z"/><path class="st1" d="M21.101 19.743h.95v5.236h-.95zM23.757 30.12h-4.363v-4.364h4.363v4.364zm-3.413-.95h2.463v-2.464h-2.463v2.464zM25.464 18.965h-7.777v-4.363h7.777v4.363zm-6.827-.95h5.877v-2.463h-5.877v2.463zM29.02 30.12h-4.362v-4.364h4.363v4.364zm-3.412-.95h2.463v-2.464h-2.463v2.464zM18.494 30.12H14.13v-4.364h4.364v4.364zm-3.414-.95h2.464v-2.464H15.08v2.464z"/></g><g><path class="st1" d="M33.729 11.946h1.45l-.725-1.256zM34.144 14.652h.621v15.956h-.621z"/><path class="st1" d="M32.735 13.047l1.72-2.978 1.719 2.978-.538.31-1.182-2.046-1.181 2.046z"/><path class="st1" d="M32.784 30.827a.31.31 0 0 1-.09-.22V13.203a.31.31 0 0 1 .53-.22l1.23 1.231 1.232-1.23a.31.31 0 0 1 .53.219v17.406a.31.31 0 0 1-.311.31h-2.901a.31.31 0 0 1-.22-.09zm.53-16.875v16.345h2.28V13.952l-.92.92a.31.31 0 0 1-.44 0l-.92-.92z"/><path class="st1" d="M32.784 32.278a.31.31 0 0 1-.09-.22v-1.45a.31.31 0 0 1 .31-.31h2.9a.31.31 0 0 1 .31.31v1.45a.31.31 0 0 1-.31.31h-2.9a.31.31 0 0 1-.22-.09zm.53-1.36v.83h2.28v-.83h-2.28z"/><path class="st1" d="M33.21 33.304a1.749 1.749 0 0 1-.517-1.246h.621c0 .305.119.591.334.807.216.215.502.333.806.333.305 0 .59-.118.806-.334.216-.215.334-.501.334-.805h.62c.001.47-.182.912-.515 1.245a1.75 1.75 0 0 1-1.245.515c-.47 0-.912-.183-1.245-.515z"/></g></svg>